<svg width="782" height="775" viewBox="0 0 782 775" fill="none" xmlns="http://www.w3.org/2000/svg">
<path d="M639.676 395.39C501.403 316.34 277.954 316.34 140.572 395.39C3.19056 474.44 3.9882 602.795 142.324 681.907C280.66 761.019 504.046 761.035 641.428 681.907C778.809 602.78 778.012 474.517 639.676 395.39Z" fill="#F5F5F5"/>
<path d="M677.321 584.35C665.717 577.701 646.964 577.701 635.438 584.35C623.911 591 623.958 601.757 635.563 608.391C647.168 615.025 665.936 615.04 677.462 608.391C688.989 601.741 688.926 591 677.321 584.35Z" fill="#E6E6E6"/>
<path d="M469.2 367.924L685.032 491.427C685.506 491.7 685.899 492.091 686.173 492.562C686.446 493.032 686.59 493.566 686.59 494.109C686.59 494.652 686.446 495.186 686.173 495.656C685.899 496.127 685.506 496.518 685.032 496.791L601.483 544.407C600.057 545.223 598.438 545.652 596.791 545.652C595.144 545.652 593.526 545.223 592.099 544.407L376.267 420.903C375.793 420.63 375.4 420.239 375.126 419.768C374.853 419.298 374.709 418.764 374.709 418.221C374.709 417.678 374.853 417.144 375.126 416.674C375.4 416.203 375.793 415.812 376.267 415.54L459.816 367.924C461.243 367.107 462.861 366.678 464.508 366.678C466.155 366.678 467.773 367.107 469.2 367.924Z" fill="#E6E6E6"/>
<path d="M193.06 504.727C238.26 478.857 311.314 478.857 356.232 504.727C395.927 527.589 400.321 562.976 369.636 588.752C394.394 587.202 420.059 591.852 438.968 602.811C472.156 621.922 471.984 652.907 438.577 672.018C405.17 691.13 351.181 691.145 317.993 672.018C291.592 656.813 286.321 634.09 302.102 615.815C264.034 621.271 222.166 615.474 192.528 598.409C147.61 572.539 147.845 530.596 193.06 504.727Z" fill="#E6E6E6"/>
<path d="M385.119 297.724V420.701L596.181 540.826V417.849L385.119 297.724Z" fill="#E0E0E0"/>
<path d="M679.433 370.357V493.35L596.181 540.826V417.849L679.433 370.357Z" fill="#E0E0E0"/>
<path opacity="0.1" d="M385.119 297.724V420.701L596.181 540.826V417.849L385.119 297.724Z" fill="black"/>
<path opacity="0.2" d="M679.433 370.357V493.35L596.181 540.826V417.849L679.433 370.357Z" fill="black"/>
<path d="M487.421 432.791L586.218 489.025V460.149L487.421 403.93V432.791Z" fill="#E0E0E0"/>
<path d="M586.218 453.251V423.569L487.421 367.35V397.017L586.218 453.251Z" fill="#E0E0E0"/>
<path d="M477.458 361.677L395.098 314.789V344.472L477.458 391.344V361.677Z" fill="#E0E0E0"/>
<path d="M487.421 467.542L586.218 523.761V495.923L487.421 439.689V467.542Z" fill="#E0E0E0"/>
<path d="M477.458 398.257L395.098 351.37V380.246L477.458 427.118V398.257Z" fill="#E0E0E0"/>
<path d="M395.098 387.144V414.982L477.458 461.869V434.016L395.098 387.144Z" fill="#E0E0E0"/>
<path d="M382.132 286.27L598.105 409.2L682.42 361.104L466.322 238.096L382.132 286.27Z" fill="#E0E0E0"/>
<path d="M382.132 286.27V298.825L598.105 421.771V409.2L382.132 286.27Z" fill="#E0E0E0"/>
<path d="M682.42 361.104V373.674L598.105 421.77V409.2L682.42 361.104Z" fill="#E0E0E0"/>
<path opacity="0.1" d="M682.42 361.104V373.674L598.105 421.77V409.2L682.42 361.104Z" fill="black"/>
<path d="M684.547 546.142L656.395 546.948L628.243 546.142C627.039 564.959 630.746 584.118 635.86 593.48C637.065 595.89 639.016 597.856 641.428 599.09C649.717 603.833 663.105 603.833 671.347 599.09C673.791 597.833 675.748 595.812 676.915 593.34C682.092 583.916 685.751 564.866 684.547 546.142Z" fill="white"/>
<path d="M676.258 534.75C687.206 541.058 687.315 551.273 676.383 557.566C665.451 563.859 647.652 563.874 636.642 557.566C625.631 551.257 625.6 541.043 636.548 534.75C647.496 528.457 665.247 528.441 676.258 534.75Z" fill="#EBEBEB"/>
<path d="M671.894 537.245C680.496 542.159 680.528 550.126 672.004 555.039C663.48 559.953 649.592 559.953 640.99 555.039C632.388 550.126 632.356 542.159 640.896 537.245C649.435 532.332 663.308 532.332 671.894 537.245Z" fill="#E0E0E0"/>
<g opacity="0.15">
<path d="M671.894 537.245C680.496 542.159 680.528 550.126 672.004 555.039C663.48 559.953 649.592 559.953 640.99 555.039C632.388 550.126 632.356 542.159 640.896 537.245C649.435 532.332 663.308 532.332 671.894 537.245Z" fill="black"/>
</g>
<path d="M702.643 427.304C639.316 447.857 638.753 489.846 653.017 519.746C656.63 525.791 667.515 529.046 677.009 491.846L660.368 493.954L679.761 484.22L684.797 469.293L668.626 470.487L689.145 461.9C692.924 450.104 697.431 438.55 702.643 427.304Z" fill="#EA0B3F"/>
<path opacity="0.2" d="M702.643 427.304C639.316 447.857 638.753 489.846 653.017 519.746C656.63 525.791 667.515 529.046 677.009 491.846L660.368 493.954L679.761 484.22L684.797 469.293L668.626 470.487L689.145 461.9C692.924 450.104 697.431 438.55 702.643 427.304Z" fill="black"/>
<path opacity="0.2" d="M702.643 427.304C639.316 447.857 638.753 489.846 653.017 519.746C656.63 525.791 667.515 529.046 677.009 491.846L660.368 493.954L679.761 484.22L684.797 469.293L668.626 470.487L689.145 461.9C692.924 450.104 697.431 438.55 702.643 427.304Z" fill="white"/>
<path d="M684.735 437.797C651.343 462.923 648.325 491.722 657.756 521.792C654.425 495.318 650.812 468.549 684.735 437.797Z" fill="white"/>
<path d="M595.383 469.96C657.818 478.671 665.388 517.669 657.099 547.878C654.769 554.078 645.166 558.93 630.089 525.853L645.932 525.078L626.257 519.25L619.062 506.183L634.311 504.633L613.776 499.983C608.278 489.608 602.135 479.581 595.383 469.96Z" fill="#EA0B3F"/>
<path opacity="0.2" d="M595.383 469.96C657.818 478.671 665.388 517.669 657.099 547.878C654.769 554.078 645.166 558.93 630.089 525.853L645.932 525.078L626.257 519.25L619.062 506.183L634.311 504.633L613.776 499.983C608.278 489.608 602.135 479.581 595.383 469.96Z" fill="white"/>
<path opacity="0.1" d="M595.383 469.96C657.818 478.671 665.388 517.669 657.099 547.878C654.769 554.078 645.166 558.93 630.089 525.853L645.932 525.078L626.257 519.25L619.062 506.183L634.311 504.633L613.776 499.983C608.278 489.608 602.135 479.581 595.383 469.96Z" fill="black"/>
<path d="M613.823 476.78C649.138 494.682 656.786 521.001 653.033 550.56C651.703 525.357 650.624 499.828 613.823 476.78Z" fill="white"/>
<path d="M721.004 484.576C663.746 485.491 652.516 519.823 656.583 547.956C657.975 553.83 666.092 559.24 683.405 531.107L669.204 528.658L687.613 525.558L695.573 514.584L681.904 511.5L700.938 509.64C707.095 500.88 713.796 492.51 721.004 484.576Z" fill="#EA0B3F"/>
<path d="M703.534 488.684C669.674 500.898 659.82 523.776 659.867 550.823C663.902 528.255 667.828 505.377 703.534 488.684Z" fill="white"/>
<path opacity="0.2" d="M721.004 484.576C663.746 485.491 652.516 519.823 656.583 547.956C657.975 553.83 666.092 559.24 683.405 531.107L669.204 528.658L687.613 525.558L695.573 514.584L681.904 511.5L700.938 509.64C707.095 500.88 713.796 492.51 721.004 484.576Z" fill="white"/>
<path d="M441.955 245.877L508.3 208.165C512.789 205.608 523.424 209.064 523.424 216.21C523.421 215.63 523.266 215.061 522.972 214.56C522.679 214.058 522.258 213.642 521.752 213.352C521.246 213.062 520.672 212.908 520.087 212.907C519.502 212.905 518.927 213.055 518.419 213.342L452.074 251.1C450.386 252.072 449.026 253.518 448.164 255.254L438.233 249.55C439.117 248.016 440.403 246.747 441.955 245.877Z" fill="#00B8A9"/>
<path d="M448.164 255.223C447.476 256.587 447.038 274.381 447.038 275.947V329.422C447.037 330.001 447.19 330.57 447.482 331.072C447.773 331.574 448.193 331.991 448.698 332.281C449.204 332.572 449.777 332.726 450.362 332.727C450.946 332.728 451.52 332.577 452.027 332.289C450.55 333.203 448.856 333.713 447.116 333.768C445.376 333.823 443.652 333.421 442.119 332.603C440.586 331.784 439.3 330.579 438.389 329.108C437.479 327.637 436.977 325.954 436.935 324.229V254.479C436.942 252.779 437.389 251.108 438.233 249.628L448.164 255.223Z" fill="#00B8A9"/>
<path opacity="0.4" d="M441.955 245.877L508.3 208.165C512.789 205.608 523.424 209.064 523.424 216.21C523.421 215.63 523.266 215.061 522.972 214.56C522.679 214.058 522.258 213.642 521.752 213.352C521.246 213.062 520.672 212.908 520.087 212.907C519.502 212.905 518.927 213.055 518.419 213.342L452.074 251.1C450.386 252.072 449.026 253.518 448.164 255.254L438.233 249.55C439.117 248.016 440.403 246.747 441.955 245.877Z" fill="white"/>
<path opacity="0.2" d="M448.164 255.223C447.476 256.587 447.038 274.381 447.038 275.947V329.422C447.037 330.001 447.19 330.57 447.482 331.072C447.773 331.574 448.193 331.991 448.698 332.281C449.204 332.572 449.777 332.726 450.362 332.727C450.946 332.728 451.52 332.577 452.027 332.289C450.55 333.203 448.856 333.713 447.116 333.768C445.376 333.823 443.652 333.421 442.119 332.603C440.586 331.784 439.3 330.579 438.389 329.108C437.479 327.637 436.977 325.954 436.935 324.229V254.479C436.942 252.779 437.389 251.108 438.233 249.628L448.164 255.223Z" fill="white"/>
<path d="M518.403 213.342L452.074 251.1C450.546 251.965 449.276 253.215 448.392 254.723C447.507 256.231 447.04 257.943 447.038 259.687V329.437C447.037 330.016 447.19 330.585 447.482 331.087C447.773 331.589 448.193 332.006 448.698 332.297C449.204 332.587 449.777 332.741 450.362 332.742C450.946 332.744 451.52 332.593 452.027 332.305L518.357 294.702C519.891 293.838 521.167 292.587 522.054 291.076C522.941 289.565 523.409 287.848 523.408 286.099V216.21C523.406 215.63 523.25 215.061 522.957 214.56C522.663 214.058 522.243 213.642 521.736 213.352C521.23 213.062 520.656 212.908 520.071 212.907C519.486 212.905 518.911 213.055 518.403 213.342Z" fill="#00B8A9"/>
<path d="M416.884 341.372L415.899 341.155C415.692 341.119 415.501 341.022 415.351 340.876C414.444 340.101 414.679 337.931 416.055 336.226L447.038 297.879L436.935 292.16L405.936 330.507C404.576 332.196 404.372 334.366 405.248 335.157L414.867 340.566L389.843 371.644L399.962 377.363L427.207 343.542L416.884 341.372Z" fill="#00B8A9"/>
<path d="M447.038 311.938V297.895L416.024 336.242C414.648 337.931 414.46 340.101 415.32 340.892C415.47 341.038 415.661 341.135 415.868 341.171L416.853 341.388L427.16 343.573L399.915 377.394L437.091 339.605C438.858 337.823 439.249 334.955 437.842 334.351L429.584 330.77L430.632 329.639L447.038 311.938Z" fill="#00B8A9"/>
<path d="M437.873 334.335L430.663 329.623L429.615 330.755L437.873 334.335Z" fill="#00B8A9"/>
<path opacity="0.4" d="M416.884 341.372L415.899 341.155C415.692 341.119 415.501 341.022 415.351 340.876C414.444 340.101 414.679 337.931 416.055 336.226L447.038 297.879L436.935 292.16L405.936 330.507C404.576 332.196 404.372 334.366 405.248 335.157L414.867 340.566L389.843 371.644L399.962 377.363L427.207 343.542L416.884 341.372Z" fill="white"/>
<path opacity="0.2" d="M437.873 334.335L430.663 329.623L429.615 330.755L437.873 334.335Z" fill="white"/>
<path d="M496.679 253.828L506.892 248V260.927L505.626 261.656L505.704 285.712L468.011 307.288V283.216L466.745 283.945V271.018L481.337 262.663L478.584 262.26C477.313 262.152 476.086 261.749 475.002 261.082C474.316 260.532 473.788 259.813 473.47 258.997C473.151 258.181 473.054 257.297 473.188 256.432C473.347 255.022 473.792 253.658 474.497 252.422C475.201 251.186 476.149 250.104 477.286 249.24C477.384 249.164 477.489 249.097 477.599 249.039C478.109 248.689 478.705 248.482 479.324 248.439C479.943 248.395 480.562 248.517 481.118 248.791C481.91 249.313 482.56 250.021 483.01 250.852C484.074 252.542 485.09 254.371 486.044 256.2C487.574 251.711 489.676 247.434 492.3 243.474C493.418 241.73 494.759 240.136 496.288 238.731C496.798 238.293 497.347 237.904 497.931 237.569C498.43 237.216 498.999 236.973 499.6 236.855C500.202 236.738 500.822 236.748 501.418 236.887C503.671 237.631 503.811 241.165 502.779 244.265C501.717 247.162 500.126 249.842 498.087 252.17C497.649 252.65 497.18 253.255 496.679 253.828ZM482.869 296.252V274.722L470.248 281.93V303.475L482.869 296.252ZM503.499 284.456V262.911L490.893 270.134V291.664L503.514 284.456M494.38 245.195C491.854 249.032 489.895 253.207 488.562 257.595C491.474 255.332 494.099 252.73 496.382 249.845C497.804 248.234 498.927 246.387 499.698 244.389C500.167 242.994 500.136 241.289 499.291 241.041C499.045 240.992 498.792 240.994 498.547 241.048C498.302 241.101 498.071 241.204 497.868 241.351C497.579 241.521 497.307 241.718 497.055 241.94C496.003 242.918 495.083 244.028 494.318 245.241M482.76 272.242V264.353L468.856 272.304V280.178L482.744 272.242M504.64 259.703V251.829L490.752 259.78V267.654L504.64 259.703ZM480.32 258.153L482.385 258.463C481.634 257.052 480.821 255.673 480.007 254.371C479.705 253.764 479.266 253.233 478.725 252.821C478.548 252.721 478.349 252.669 478.146 252.669C477.943 252.669 477.744 252.721 477.567 252.821C476.962 253.362 476.583 254.108 476.504 254.913C476.455 255.343 476.52 255.777 476.693 256.174C476.866 256.571 477.14 256.917 477.489 257.176C478.377 257.676 479.365 257.978 480.383 258.06" fill="white"/>
<path d="M479.616 177.103C481.18 176.235 482.4 176.933 482.4 178.653V193.192C482.345 194.142 482.065 195.066 481.585 195.889C481.104 196.713 480.435 197.414 479.632 197.935C478.068 198.819 476.848 198.106 476.848 196.385V181.862C476.9 180.909 477.178 179.981 477.659 179.155C478.14 178.328 478.81 177.625 479.616 177.103Z" fill="#00B8A9"/>
<path d="M442.284 209.886C443.238 209.328 444.176 209.374 444.676 210.087L451.104 219.015C451.871 220.085 451.417 222.286 450.104 223.913C449.721 224.399 449.248 224.81 448.712 225.122C448.364 225.409 447.916 225.549 447.466 225.511C447.015 225.473 446.597 225.261 446.303 224.921L439.891 215.993C439.124 214.923 439.562 212.738 440.892 211.095C441.27 210.604 441.743 210.193 442.284 209.886Z" fill="#00B8A9"/>
<path d="M415.007 256.68C415.431 256.425 415.919 256.295 416.415 256.308L427.472 257.254C428.802 257.362 429.255 259.036 428.505 260.989C428.045 262.208 427.2 263.246 426.096 263.95C425.686 264.208 425.205 264.332 424.72 264.306L413.647 263.376C412.317 263.252 411.848 261.594 412.614 259.641C413.07 258.424 413.909 257.386 415.007 256.68Z" fill="#00B8A9"/>
<path d="M417.87 297.6C419.434 296.717 420.653 297.43 420.669 299.15C420.615 300.1 420.336 301.024 419.855 301.848C419.374 302.672 418.705 303.373 417.901 303.893L405.076 311.287C403.512 312.155 402.308 311.442 402.292 309.737C402.344 308.786 402.622 307.861 403.103 307.036C403.584 306.212 404.255 305.512 405.06 304.994L417.87 297.6Z" fill="#00B8A9"/>
<path d="M449.056 341C449.465 340.738 449.945 340.608 450.432 340.628C451.761 340.752 452.215 342.426 451.464 344.379L445.114 360.608C444.659 361.82 443.819 362.853 442.721 363.553C442.304 363.808 441.82 363.937 441.329 363.925C440 363.816 439.547 362.142 440.297 360.189L446.647 343.961C447.103 342.74 447.949 341.7 449.056 341Z" fill="#00B8A9"/>
<path d="M480.054 332.785C481.618 331.902 482.838 332.599 482.838 334.335V348.859C482.784 349.811 482.505 350.737 482.024 351.564C481.543 352.39 480.874 353.093 480.07 353.617C478.506 354.485 477.286 353.772 477.286 352.067V337.544C477.335 336.59 477.612 335.662 478.093 334.835C478.574 334.008 479.246 333.305 480.054 332.785Z" fill="#00B8A9"/>
<path d="M511.006 305.598C511.975 305.04 512.914 305.071 513.43 305.8L519.842 314.728C520.609 315.797 520.155 317.998 518.841 319.626C518.458 320.112 517.986 320.522 517.449 320.835C517.102 321.122 516.654 321.261 516.203 321.224C515.753 321.186 515.335 320.974 515.041 320.633L508.628 311.705C507.862 310.636 508.3 308.435 509.629 306.807C510.011 306.325 510.477 305.916 511.006 305.598Z" fill="#00B8A9"/>
<path d="M533.621 266.786C534.036 266.524 534.522 266.394 535.013 266.414L546.086 267.344C547.416 267.468 547.869 269.142 547.103 271.095C546.658 272.313 545.816 273.349 544.71 274.04C544.296 274.304 543.81 274.434 543.318 274.412L532.26 273.467C530.931 273.358 530.462 271.684 531.228 269.731C531.684 268.519 532.523 267.486 533.621 266.786Z" fill="#00B8A9"/>
<path d="M554.594 219.434C556.158 218.566 557.363 219.279 557.363 220.984C557.314 221.933 557.039 222.858 556.56 223.682C556.082 224.507 555.414 225.207 554.61 225.727L541.848 233.027C540.284 233.911 539.064 233.198 539.064 231.477C539.115 230.524 539.392 229.596 539.873 228.769C540.354 227.942 541.025 227.24 541.832 226.719L554.594 219.434Z" fill="#00B8A9"/>
<path d="M544.46 182.621C545.414 182.078 546.336 182.109 546.853 182.822C547.619 183.892 547.181 186.093 545.852 187.72L534.888 201.298C534.511 201.788 534.044 202.204 533.512 202.523C532.558 203.081 531.604 203.05 531.103 202.321C530.321 201.252 530.775 199.051 532.104 197.424L543.13 183.846C543.495 183.361 543.945 182.946 544.46 182.621Z" fill="#00B8A9"/>
<path d="M517.011 167.121C517.426 166.859 517.912 166.729 518.403 166.749C519.717 166.873 520.186 168.532 519.42 170.485L513.086 186.713C512.626 187.927 511.788 188.964 510.693 189.674C510.275 189.929 509.792 190.058 509.301 190.046C507.972 189.922 507.518 188.248 508.269 186.31L514.525 170.082C515.002 168.85 515.876 167.809 517.011 167.121Z" fill="#00B8A9"/>
<g opacity="0.6">
<path d="M479.616 177.103C481.18 176.235 482.4 176.933 482.4 178.653V193.192C482.345 194.142 482.065 195.066 481.585 195.889C481.104 196.713 480.435 197.414 479.632 197.935C478.068 198.819 476.848 198.106 476.848 196.385V181.862C476.9 180.909 477.178 179.981 477.659 179.155C478.14 178.328 478.81 177.625 479.616 177.103Z" fill="white"/>
<path d="M442.284 209.886C443.238 209.328 444.176 209.374 444.676 210.087L451.104 219.015C451.871 220.085 451.417 222.286 450.104 223.913C449.721 224.399 449.248 224.81 448.712 225.122C448.364 225.409 447.916 225.549 447.466 225.511C447.015 225.473 446.597 225.261 446.303 224.921L439.891 215.993C439.124 214.923 439.562 212.738 440.892 211.095C441.27 210.604 441.743 210.193 442.284 209.886Z" fill="white"/>
<path d="M415.007 256.68C415.431 256.425 415.919 256.295 416.415 256.308L427.472 257.254C428.802 257.362 429.255 259.036 428.505 260.989C428.045 262.208 427.2 263.246 426.096 263.95C425.686 264.208 425.205 264.332 424.72 264.306L413.647 263.376C412.317 263.252 411.848 261.594 412.614 259.641C413.07 258.424 413.909 257.386 415.007 256.68Z" fill="white"/>
<path d="M417.87 297.6C419.434 296.717 420.653 297.43 420.669 299.15C420.615 300.1 420.336 301.024 419.855 301.848C419.374 302.672 418.705 303.373 417.901 303.893L405.076 311.287C403.512 312.155 402.308 311.442 402.292 309.737C402.344 308.786 402.622 307.861 403.103 307.036C403.584 306.212 404.255 305.512 405.06 304.994L417.87 297.6Z" fill="white"/>
<path d="M449.056 341C449.465 340.738 449.945 340.608 450.432 340.628C451.761 340.752 452.215 342.426 451.464 344.379L445.114 360.608C444.659 361.82 443.819 362.853 442.721 363.553C442.304 363.808 441.82 363.937 441.329 363.925C440 363.816 439.547 362.142 440.297 360.189L446.647 343.961C447.103 342.74 447.948 341.7 449.056 341Z" fill="white"/>
<path d="M480.054 332.785C481.618 331.902 482.838 332.599 482.838 334.335V348.859C482.784 349.811 482.505 350.737 482.024 351.564C481.543 352.39 480.874 353.093 480.07 353.617C478.506 354.485 477.286 353.772 477.286 352.067V337.544C477.335 336.59 477.612 335.662 478.093 334.835C478.574 334.008 479.246 333.305 480.054 332.785Z" fill="white"/>
<path d="M511.006 305.598C511.975 305.04 512.914 305.071 513.43 305.8L519.842 314.728C520.609 315.797 520.155 317.998 518.841 319.626C518.458 320.112 517.986 320.522 517.449 320.835C517.102 321.122 516.654 321.261 516.203 321.224C515.753 321.186 515.335 320.974 515.041 320.633L508.628 311.705C507.862 310.636 508.3 308.435 509.629 306.807C510.011 306.325 510.477 305.916 511.006 305.598Z" fill="white"/>
<path d="M533.621 266.786C534.036 266.524 534.522 266.394 535.013 266.414L546.086 267.344C547.416 267.468 547.869 269.142 547.103 271.095C546.658 272.313 545.816 273.349 544.71 274.04C544.296 274.304 543.81 274.434 543.318 274.412L532.26 273.467C530.931 273.358 530.462 271.684 531.228 269.731C531.684 268.519 532.523 267.486 533.621 266.786Z" fill="white"/>
<path d="M554.594 219.434C556.158 218.566 557.363 219.279 557.363 220.984C557.314 221.933 557.039 222.858 556.56 223.682C556.082 224.507 555.414 225.207 554.61 225.727L541.848 233.027C540.284 233.911 539.064 233.198 539.064 231.477C539.115 230.524 539.392 229.596 539.873 228.769C540.354 227.942 541.025 227.24 541.832 226.719L554.594 219.434Z" fill="white"/>
<path d="M544.46 182.621C545.414 182.079 546.336 182.11 546.853 182.823C547.619 183.892 547.181 186.093 545.852 187.721L534.888 201.299C534.511 201.788 534.044 202.204 533.512 202.523C532.558 203.081 531.604 203.05 531.103 202.322C530.321 201.252 530.775 199.051 532.104 197.424L543.13 183.846C543.495 183.361 543.945 182.946 544.46 182.621Z" fill="white"/>
<path d="M517.011 167.121C517.426 166.859 517.912 166.729 518.403 166.749C519.717 166.873 520.186 168.532 519.42 170.485L513.086 186.713C512.626 187.927 511.788 188.964 510.693 189.674C510.275 189.929 509.792 190.058 509.301 190.046C507.972 189.922 507.518 188.248 508.269 186.31L514.525 170.082C515.002 168.85 515.876 167.809 517.011 167.121Z" fill="white"/>
</g>
<path d="M334.399 415.601C349.804 426.219 367.243 433.55 380.052 447.779C404.091 474.346 404.654 517.095 385.776 547.491C366.899 577.886 331.756 596.145 295.987 600.315C258.451 604.701 219.085 594.425 189.635 570.958C160.185 547.491 141.448 510.802 141.464 473.308C141.479 435.813 160.842 398.567 192.481 378.122C221.369 359.522 262.861 354.128 291.827 375.487C306.466 386.337 316.241 402.209 330.927 413.044C332.022 413.958 333.21 414.795 334.399 415.601Z" fill="#EA0B3F"/>
<path opacity="0.2" d="M334.399 415.601C349.804 426.219 367.243 433.55 380.052 447.779C404.091 474.346 404.654 517.095 385.776 547.491C366.899 577.886 331.756 596.145 295.987 600.315C258.451 604.701 219.085 594.425 189.635 570.958C160.185 547.491 141.448 510.802 141.464 473.308C141.479 435.813 160.842 398.567 192.481 378.122C221.369 359.522 262.861 354.128 291.827 375.487C306.466 386.337 316.241 402.209 330.927 413.044C332.022 413.958 333.21 414.795 334.399 415.601Z" fill="black"/>
<path opacity="0.1" d="M334.399 415.601C349.804 426.219 367.243 433.55 380.052 447.779C404.091 474.346 404.654 517.095 385.776 547.491C366.899 577.886 331.756 596.145 295.987 600.315C258.451 604.701 219.085 594.425 189.635 570.958C160.185 547.491 141.448 510.802 141.464 473.308C141.479 435.813 160.842 398.567 192.481 378.122C221.369 359.522 262.861 354.128 291.827 375.487C306.466 386.337 316.241 402.209 330.927 413.044C332.022 413.958 333.21 414.795 334.399 415.601Z" fill="white"/>
<path opacity="0.1" d="M328.112 571.284C328.112 571.036 328.112 570.772 328.002 570.524C326.718 562.249 322.865 554.576 316.98 548.571C311.094 542.565 303.467 538.526 295.158 537.013C280.276 534.194 266.016 528.783 253.04 521.033C243.828 515.515 235.132 508.741 224.809 505.765C214.759 502.907 204.027 503.519 194.374 507.501C203.054 498.48 217.928 494.512 229.83 498.589C221.603 486.111 214.362 472.657 211.515 458.01C208.669 443.362 210.702 427.304 219.601 415.276C223.4 410.153 228.298 405.929 233.942 402.909C239.587 399.888 245.837 398.146 252.243 397.808C258.649 397.47 265.05 398.544 270.986 400.954C276.923 403.363 282.246 407.048 286.572 411.742C295.408 421.306 300.382 434.76 306.169 446.385C310.329 454.724 314.646 463.264 321.496 469.635C331.85 479.229 346.739 482.686 357.468 491.862C369.651 502.278 374.891 518.925 374.953 534.843C374.758 545.594 373.181 556.277 370.261 566.634C357.677 578.54 342.664 587.635 326.235 593.309C328.608 586.217 329.251 578.669 328.112 571.284Z" fill="black"/>
<path d="M161.624 468.224C162.094 442.361 171.809 417.502 189.038 398.071C206.267 378.64 229.894 365.898 255.714 362.111C259.297 362.452 262.85 363.042 266.349 363.878C239.208 365.307 213.62 376.868 194.73 396.235C175.841 415.602 165.052 441.34 164.533 468.271C163.845 503.13 181.049 538.656 210.561 563.301C233.677 582.614 264.394 595.433 298.145 600.036L295.987 600.315C292.953 600.672 289.903 600.92 286.853 601.09C256.856 595.324 229.705 583.064 208.653 565.44C178.515 540.299 160.92 503.936 161.624 468.224Z" fill="white"/>
<path d="M341.734 596.905L337.824 604.5C332.35 599.494 331.365 595.448 331.365 595.448C333.132 589.248 335.196 582.955 336.213 579.948C336.745 584.211 339.685 587.884 340.905 592.038C341.379 593.621 341.657 595.255 341.734 596.905Z" fill="#EA0B3F"/>
<path d="M341.546 604.686L337.824 604.5L341.687 596.905C341.843 599.478 341.625 602.082 341.546 604.686Z" fill="#EA0B3F"/>
<path opacity="0.1" d="M341.734 596.905L337.824 604.5C332.35 599.494 331.365 595.448 331.365 595.448C333.132 589.248 335.196 582.955 336.213 579.948C336.745 584.211 339.685 587.884 340.905 592.038C341.379 593.621 341.657 595.255 341.734 596.905Z" fill="black"/>
<path opacity="0.4" d="M341.546 604.686L337.824 604.5L341.687 596.905C341.843 599.478 341.625 602.082 341.546 604.686Z" fill="black"/>
<path d="M338.747 570.927C340.079 569.012 341.609 567.24 343.314 565.642C342.36 568.954 342.36 572.466 343.314 575.779C344.471 580.181 346.551 584.304 347.583 588.737C348.85 594.115 348.569 599.912 350.868 604.95C352.014 607.4 353.72 609.552 355.851 611.237C357.982 612.921 360.479 614.09 363.145 614.653C365.102 615.176 367.188 614.926 368.963 613.955C369.71 613.427 370.26 612.67 370.527 611.801C371.687 614.194 373.092 616.464 374.719 618.574C376.533 620.915 378.801 623.472 378.3 626.324C378.005 627.515 377.36 628.593 376.447 629.42C375.534 630.248 374.394 630.789 373.17 630.974C370.727 631.32 368.237 631.119 365.882 630.385C360.704 629.272 355.761 627.274 351.274 624.48C346.769 621.631 343.471 617.249 342 612.157C341.467 609.688 341.278 607.159 341.437 604.64C341.515 602.036 341.734 599.432 341.625 596.89C341.572 595.227 341.315 593.577 340.858 591.976C339.623 587.822 336.682 584.149 336.166 579.886C336.166 579.654 336.088 579.421 336.072 579.189C336.044 576.221 336.982 573.324 338.747 570.927Z" fill="#455A64"/>
<path d="M338.747 570.927C340.079 569.012 341.609 567.24 343.314 565.642C342.36 568.954 342.36 572.466 343.314 575.779C344.471 580.181 346.551 584.304 347.583 588.737C348.85 594.115 348.569 599.912 350.868 604.95C352.014 607.4 353.72 609.552 355.851 611.237C357.982 612.921 360.479 614.09 363.145 614.653C365.102 615.176 367.188 614.926 368.963 613.955C369.71 613.427 370.26 612.67 370.527 611.801C371.687 614.194 373.092 616.464 374.719 618.574C376.533 620.915 378.801 623.472 378.3 626.324C378.005 627.515 377.36 628.593 376.447 629.42C375.534 630.248 374.394 630.789 373.17 630.974C370.727 631.32 368.237 631.119 365.882 630.385C360.704 629.272 355.761 627.274 351.274 624.48C346.769 621.631 343.471 617.249 342 612.157C341.467 609.688 341.278 607.159 341.437 604.64C341.515 602.036 341.734 599.432 341.625 596.89C341.572 595.227 341.315 593.577 340.858 591.976C339.623 587.822 336.682 584.149 336.166 579.886C336.166 579.654 336.088 579.421 336.072 579.189C336.044 576.221 336.982 573.324 338.747 570.927Z" fill="#EA0B3F"/>
<path d="M363.208 614.652C360.542 614.09 358.045 612.921 355.914 611.237C353.783 609.552 352.077 607.4 350.93 604.95C348.631 599.912 348.913 594.099 347.646 588.736C346.614 584.303 344.518 580.181 343.376 575.779C342.423 572.466 342.423 568.954 343.376 565.642L344.706 564.34C351.29 567.734 358.782 570.54 364.787 574.849C364.645 582.47 365.132 590.09 366.242 597.634C367.06 602.537 368.56 607.305 370.699 611.801C370.432 612.67 369.882 613.427 369.135 613.955C367.33 614.955 365.199 615.206 363.208 614.652Z" fill="#AD5755"/>
<path d="M385.573 594.549C386.668 600.858 391.532 613.692 391.532 613.692C391.532 613.692 368.697 614.606 368.197 613.568L361.487 603.291L385.573 594.549Z" fill="#C77371"/>
<path d="M317.226 444.571L375.454 476.734C380.732 479.646 384.954 484.126 387.524 489.544C390.094 494.961 390.884 501.042 389.78 506.928L378.488 567.3L387.747 596.487C379.755 607.12 361.393 607.662 361.393 607.662C351.165 587.295 343.642 578.646 337.824 561.596C332.006 544.546 328.127 532.782 328.127 532.782L279.768 519.669C268.711 516.69 258.808 510.495 251.339 501.882C243.87 493.27 239.178 482.637 237.869 471.355C237.04 464.101 237.009 459.157 237.009 459.157L317.226 444.571Z" fill="#37474F"/>
<path opacity="0.2" d="M316.788 460.784C316.78 467.228 314.47 473.46 310.266 478.377L351.368 503.874C357.373 507.623 361.815 513.389 363.88 520.118L378.488 567.3L365.366 514.817C363.86 508.777 360.025 503.563 354.684 500.294L316.741 477.044C320.62 467.403 316.788 460.784 316.788 460.784Z" fill="black"/>
<path d="M379.145 642.94L378.613 651.419C371.606 648.939 369.088 645.622 369.088 645.622C368.259 639.236 367.649 632.633 367.368 629.424C369.542 633.144 373.702 635.376 376.502 638.724C377.554 640.017 378.442 641.433 379.145 642.94Z" fill="#EA0B3F"/>
<path d="M382.07 650.163L378.613 651.419L379.145 642.94C380.271 645.25 381.116 647.73 382.07 650.163Z" fill="#EA0B3F"/>
<path opacity="0.3" d="M382.07 650.163L378.613 651.419L379.145 642.94C380.271 645.25 381.116 647.73 382.07 650.163Z" fill="black"/>
<path d="M366.101 620.217C366.564 617.934 367.266 615.706 368.197 613.568C368.655 616.984 370.069 620.206 372.279 622.868C375.094 626.479 378.644 629.455 381.35 633.113C384.65 637.577 386.683 643.018 390.734 646.753C392.759 648.562 395.182 649.878 397.81 650.596C400.438 651.315 403.199 651.416 405.874 650.891C406.889 650.757 407.867 650.423 408.75 649.909C409.634 649.395 410.405 648.712 411.019 647.9C411.504 647.121 411.724 646.208 411.645 645.296C413.658 647.064 415.848 648.622 418.182 649.946C420.779 651.372 423.875 652.845 424.579 655.712C424.77 656.923 424.599 658.162 424.088 659.277C423.576 660.393 422.747 661.336 421.701 661.989C419.588 663.258 417.216 664.042 414.757 664.284C409.553 665.285 404.212 665.374 398.976 664.547C393.701 663.68 388.93 660.922 385.573 656.797C384.1 654.741 382.921 652.493 382.07 650.116C381.116 647.683 380.271 645.203 379.145 642.893C378.443 641.381 377.555 639.959 376.502 638.662C373.702 635.33 369.542 633.098 367.368 629.362C367.258 629.161 367.118 628.975 367.008 628.773C365.804 626.087 365.486 623.093 366.101 620.217Z" fill="#EA0B3F"/>
<path opacity="0.2" d="M366.101 620.217C366.564 617.934 367.266 615.706 368.197 613.568C368.655 616.984 370.069 620.206 372.279 622.868C375.094 626.479 378.644 629.455 381.35 633.113C384.65 637.577 386.683 643.018 390.734 646.753C392.759 648.562 395.182 649.878 397.81 650.596C400.438 651.315 403.199 651.416 405.874 650.891C406.889 650.757 407.867 650.423 408.75 649.909C409.634 649.395 410.405 648.712 411.019 647.9C411.504 647.121 411.724 646.208 411.645 645.296C413.658 647.064 415.848 648.622 418.182 649.946C420.779 651.372 423.875 652.845 424.579 655.712C424.77 656.923 424.599 658.162 424.088 659.277C423.576 660.393 422.747 661.336 421.701 661.989C419.588 663.258 417.216 664.042 414.757 664.284C409.553 665.285 404.212 665.374 398.976 664.547C393.701 663.68 388.93 660.922 385.573 656.797C384.1 654.741 382.921 652.493 382.07 650.116C381.116 647.683 380.271 645.203 379.145 642.893C378.443 641.381 377.555 639.959 376.502 638.662C373.702 635.33 369.542 633.098 367.368 629.362C367.258 629.161 367.118 628.975 367.008 628.773C365.804 626.087 365.486 623.093 366.101 620.217Z" fill="white"/>
<path d="M405.936 650.876C403.262 651.4 400.501 651.299 397.873 650.581C395.245 649.862 392.822 648.546 390.797 646.738C386.683 643.002 384.65 637.562 381.413 633.098C378.707 629.44 375.157 626.464 372.341 622.852C370.131 620.191 368.717 616.969 368.259 613.552L368.963 611.847C376.361 612.39 384.369 612.033 391.594 613.676C394.484 620.736 397.946 627.553 401.948 634.059C404.64 638.259 407.914 642.062 411.676 645.358C411.755 646.27 411.536 647.183 411.05 647.962C409.803 649.567 407.963 650.615 405.936 650.876Z" fill="#C77371"/>
<path d="M378.379 225.959C378.755 227.405 378.839 228.912 378.625 230.39C378.411 231.869 377.903 233.291 377.13 234.574C376.358 235.857 375.337 236.975 374.125 237.864C372.914 238.753 371.537 239.396 370.074 239.754C366.816 235.144 364.216 230.111 362.348 224.797C363.091 222.785 363.645 220.709 364.005 218.597C369.73 218.209 376.924 220.457 378.379 225.959Z" fill="#AD5755"/>
<path d="M361.769 223.076C361.769 221.371 361.769 219.666 361.769 217.946C361.664 216.567 361.9 215.183 362.457 213.916C362.788 213.313 363.261 212.799 363.835 212.417C364.41 212.034 365.069 211.795 365.757 211.719C366.444 211.643 367.14 211.732 367.786 211.98C368.431 212.227 369.007 212.625 369.464 213.141C369.939 212.746 370.518 212.493 371.132 212.411C371.746 212.329 372.372 212.42 372.936 212.676C373.482 212.937 373.94 213.35 374.254 213.864C374.568 214.379 374.724 214.973 374.703 215.574C375.148 215.206 375.684 214.962 376.256 214.866C376.827 214.771 377.414 214.828 377.956 215.032C378.463 215.216 378.906 215.54 379.233 215.966C379.56 216.391 379.757 216.901 379.802 217.434C380.327 217.491 380.829 217.678 381.261 217.979C381.693 218.28 382.041 218.684 382.273 219.155C382.652 220.012 382.761 220.963 382.586 221.883C382.309 223.771 381.426 225.521 380.068 226.874C379.634 227.335 379.099 227.69 378.504 227.912C378.2 228.017 377.876 228.045 377.559 227.993C377.242 227.942 376.943 227.813 376.689 227.618C376.447 227.41 376.291 227.121 376.25 226.807C376.21 226.492 376.288 226.173 376.47 225.913C375.883 226.349 375.153 226.554 374.422 226.486C374.136 226.39 373.877 226.227 373.667 226.011C373.458 225.795 373.304 225.533 373.217 225.246C373.048 224.668 372.979 224.065 373.014 223.464C372.75 223.978 372.314 224.386 371.781 224.617C371.248 224.849 370.65 224.89 370.089 224.735C369.558 224.521 369.12 224.129 368.851 223.628C368.582 223.126 368.5 222.547 368.619 221.991C368.325 222.487 367.985 222.954 367.603 223.386C367.411 223.573 367.178 223.713 366.923 223.796C366.667 223.879 366.396 223.903 366.13 223.865C365.864 223.828 365.61 223.73 365.388 223.58C365.166 223.43 364.982 223.231 364.85 222.999C364.537 222.503 364.33 221.949 364.24 221.371C363.521 221.976 362.504 222.472 361.769 223.076Z" fill="#C77371"/>
<path d="M355.998 245.985L359.72 235.6V225.68C359.722 225.01 359.906 224.353 360.253 223.777C360.6 223.202 361.096 222.729 361.691 222.41L363.161 221.635C363.718 221.326 364.345 221.165 364.983 221.165C365.621 221.165 366.248 221.326 366.805 221.635L373.812 225.634C373.255 226.654 372.333 227.431 371.228 227.812C370.122 228.194 368.913 228.152 367.837 227.695L365.976 226.92C373.984 234.004 370.965 239.041 370.965 239.041L366.148 250.806L355.998 245.985Z" fill="#C77371"/>
<path d="M308.906 342.55L353.464 241.909C365.241 239.956 369.823 246.807 370.809 251.209L325.453 372.744L308.906 342.55Z" fill="#EA0B3F"/>
<path opacity="0.3" d="M308.906 342.55L353.464 241.909C365.241 239.956 369.823 246.807 370.809 251.209L325.453 372.744L308.906 342.55Z" fill="white"/>
<path d="M250.334 400.07C242.185 395.87 234.1 391.189 228.141 384.571C222.182 377.952 218.6 368.885 220.774 360.453C222.761 352.703 229.095 346.689 235.507 341.434C241.92 336.18 248.864 331.096 252.805 324.043C257.497 315.596 257.231 305.614 257.857 296.143C258.482 286.673 260.703 276.303 268.617 270.274C274.779 265.624 283.397 264.446 291.248 265.624C299.099 266.802 306.388 270.119 313.473 273.498C318.415 275.854 326.704 279.837 330.677 283.433C334.649 287.029 337.652 291.927 337.542 297.104C337.483 299.773 336.529 302.347 334.829 304.418C333.13 306.489 330.783 307.941 328.159 308.543C329.722 318.649 325.249 330.507 314.395 337.993C305.84 343.852 309.891 355.772 303.917 364.343C297.942 372.915 291.905 381.517 283.772 388.337C275.639 395.157 259.921 404.999 250.334 400.07Z" fill="#263238"/>
<path d="M310.157 336.614C320.667 338.272 326.016 371.938 329.425 381.936C332.96 392.259 328.158 399.745 322.825 405.992C321.859 407.124 321.141 408.443 320.719 409.866C320.296 411.288 320.177 412.782 320.37 414.253L331.412 454.925C301.258 477.106 250.709 466.349 237.009 459.11C236.853 444.908 239.877 430.848 245.861 417.942C249.906 409.608 252.179 400.539 252.539 391.298L253.055 376.371L251.491 332.801L275.592 344.441L298.661 343.418C298.661 343.418 306.732 336.087 310.157 336.614Z" fill="#EA0B3F"/>
<path opacity="0.1" d="M310.157 336.614C320.667 338.272 326.016 371.938 329.425 381.936C332.96 392.259 328.158 399.745 322.825 405.992C321.859 407.124 321.141 408.443 320.719 409.866C320.296 411.288 320.177 412.782 320.37 414.253L331.412 454.925C301.258 477.106 250.709 466.349 237.009 459.11C236.853 444.908 239.877 430.848 245.861 417.942C249.906 409.608 252.179 400.539 252.539 391.298L253.055 376.371L251.491 332.801L275.592 344.441L298.661 343.418C298.661 343.418 306.732 336.087 310.157 336.614Z" fill="white"/>
<path d="M298.724 333.25V353.695L301.383 364.25C301.526 364.837 301.471 365.454 301.225 366.006C300.978 366.558 300.555 367.015 300.02 367.304C299.486 367.594 298.87 367.701 298.268 367.608C297.666 367.515 297.112 367.229 296.691 366.792L275.608 344.426V322.617L298.724 333.25Z" fill="#C77371"/>
<path d="M276.515 323.02C278.47 337.466 292.046 347.557 298.677 349.138V333.25L276.515 323.02Z" fill="#AD5755"/>
<path d="M283.35 306.606C283.129 308.43 282.683 310.221 282.02 311.938C281.435 313.216 280.448 314.271 279.205 314.945C278.607 315.265 277.938 315.432 277.258 315.432C276.578 315.432 275.909 315.265 275.311 314.945C276.275 313.3 276.541 311.344 276.05 309.505C275.559 307.666 274.35 306.097 272.691 305.141C271.032 304.185 269.058 303.922 267.203 304.408C265.347 304.895 263.763 306.093 262.799 307.737C262.133 308.874 261.726 310.142 261.607 311.451C261.488 312.761 261.66 314.08 262.111 315.317C263.037 317.779 264.525 319.997 266.459 321.796C267.635 322.608 269.062 322.987 270.49 322.865C271.919 322.743 273.26 322.129 274.279 321.129C278.47 331.592 288.355 341.403 299.615 343.728C302.683 344.453 305.896 344.292 308.874 343.263C314.004 341.295 315.756 336.567 317.711 331.948C320.291 326.151 322.069 320.035 322.997 313.767C324.123 305.071 322.841 295.818 317.961 288.502C308.812 305.428 290.138 307.148 283.35 306.606Z" fill="#C77371"/>
<path d="M306.372 316.185L311.158 327.623L303.432 327.949L306.372 316.185Z" fill="#AD5755"/>
<path d="M306.419 333.808L296.706 330.15C295.876 331.551 295.556 333.193 295.799 334.8C295.934 335.595 296.264 336.344 296.76 336.982C297.257 337.621 297.904 338.127 298.646 338.458C299.43 338.739 300.269 338.835 301.097 338.738C301.925 338.641 302.719 338.354 303.416 337.9C304.747 336.807 305.779 335.4 306.419 333.808Z" fill="#AD5755"/>
<path opacity="0.3" d="M306.419 333.808L296.706 330.15C295.876 331.551 295.556 333.193 295.799 334.8C295.934 335.595 296.264 336.344 296.76 336.982C297.257 337.621 297.904 338.127 298.646 338.458C299.43 338.739 300.269 338.835 301.097 338.738C301.925 338.641 302.719 338.354 303.416 337.9C304.747 336.807 305.779 335.4 306.419 333.808Z" fill="black"/>
<path d="M295.408 315.053C295.298 315.469 295.314 315.908 295.456 316.314C295.598 316.72 295.858 317.076 296.204 317.335C296.549 317.595 296.965 317.747 297.398 317.772C297.831 317.797 298.262 317.694 298.636 317.476C299.01 317.258 299.31 316.935 299.498 316.548C299.687 316.16 299.755 315.726 299.694 315.301C299.633 314.875 299.446 314.477 299.156 314.157C298.866 313.837 298.487 313.609 298.067 313.503C297.507 313.361 296.914 313.445 296.416 313.735C295.918 314.026 295.555 314.499 295.408 315.053Z" fill="#263238"/>
<path d="M313.379 318.758C313.288 319.297 313.406 319.85 313.709 320.306C314.012 320.763 314.478 321.089 315.013 321.22C315.548 321.351 316.114 321.278 316.597 321.014C317.079 320.75 317.444 320.315 317.617 319.796C317.708 319.257 317.59 318.704 317.287 318.247C316.984 317.791 316.518 317.464 315.983 317.333C315.447 317.202 314.882 317.276 314.399 317.54C313.917 317.804 313.552 318.239 313.379 318.758Z" fill="#263238"/>
<path d="M316.116 308.76L321.324 311.473C321.462 310.857 321.407 310.213 321.167 309.629C320.927 309.044 320.512 308.547 319.979 308.202C319.347 307.928 318.65 307.835 317.967 307.933C317.284 308.032 316.643 308.318 316.116 308.76Z" fill="#263238"/>
<path d="M300.444 305.691L294.626 306.574C294.699 305.949 294.963 305.36 295.382 304.887C295.801 304.413 296.356 304.077 296.972 303.924C297.66 303.869 298.349 304.006 298.962 304.318C299.575 304.63 300.089 305.106 300.444 305.691Z" fill="#263238"/>
<path d="M295.721 333.498C295.675 333.931 295.675 334.367 295.721 334.8C295.812 335.488 296.06 336.146 296.447 336.724C296.833 337.302 297.348 337.785 297.951 338.136C298.554 338.488 299.231 338.698 299.928 338.751C300.626 338.804 301.327 338.698 301.977 338.443C301.653 337.052 300.879 335.805 299.772 334.893C298.614 333.997 297.19 333.507 295.721 333.498Z" fill="#AD5755"/>
<path d="M401.291 469.635C401.299 469.733 401.299 469.831 401.291 469.929V469.635V469.247C401.306 469.376 401.306 469.506 401.291 469.635Z" fill="#E0E0E0"/>
<path opacity="0.2" d="M401.291 469.635C401.299 469.733 401.299 469.831 401.291 469.929V469.635V469.247C401.306 469.376 401.306 469.506 401.291 469.635Z" fill="black"/>
<path d="M401.307 469.945C401.251 470.08 401.183 470.209 401.103 470.332C401.066 470.425 401.019 470.513 400.963 470.595C400.855 470.744 400.729 470.88 400.587 470.998C400.533 471.078 400.47 471.151 400.4 471.216C400.152 471.426 399.885 471.613 399.602 471.773L329.222 512.073C328.923 512.246 328.609 512.391 328.284 512.507H328.127C327.845 512.606 327.558 512.689 327.267 512.756H327.095C326.767 512.833 326.438 512.88 326.094 512.926H325.938C325.609 512.926 325.265 512.926 324.921 512.926H324.749C324.405 512.926 324.045 512.926 323.701 512.926H323.529L322.763 512.802L322.153 512.647L321.683 512.507C321.254 512.376 320.839 512.2 320.448 511.98L277.845 487.429C277.564 487.272 277.302 487.085 277.063 486.87C276.87 486.699 276.697 486.506 276.546 486.297C276.418 486.114 276.313 485.916 276.234 485.708C276.162 485.462 276.135 485.204 276.155 484.948C276.229 484.433 276.432 483.944 276.746 483.527C277.061 483.11 277.476 482.778 277.954 482.561L348.334 442.339C349.687 441.651 351.185 441.292 352.705 441.292C354.226 441.292 355.724 441.651 357.077 442.339L399.696 466.875C400.19 467.102 400.616 467.454 400.932 467.894C401.247 468.334 401.441 468.849 401.494 469.386C401.509 469.515 401.509 469.645 401.494 469.774C401.436 469.835 401.373 469.892 401.307 469.945Z" fill="#E0E0E0"/>
<path d="M395.457 469.263L327.142 508.4L326.876 508.539H326.735L326.203 508.695L325.828 508.772H325.562C325.338 508.784 325.114 508.784 324.89 508.772H324.186L323.732 508.695L323.185 508.539C323.025 508.487 322.868 508.425 322.716 508.354L300.742 495.69L371.294 455.312L395.457 469.263Z" fill="#E0E0E0"/>
<path d="M330.473 458.506L343.329 466.008C343.524 466.121 343.685 466.283 343.797 466.478C343.909 466.672 343.968 466.892 343.968 467.116C343.968 467.34 343.909 467.56 343.797 467.754C343.685 467.948 343.524 468.11 343.329 468.224L324.108 479.214C323.783 479.403 323.413 479.503 323.036 479.503C322.66 479.503 322.29 479.403 321.965 479.214L309.109 471.727C308.911 471.614 308.746 471.452 308.632 471.256C308.517 471.06 308.457 470.837 308.457 470.611C308.457 470.385 308.517 470.162 308.632 469.966C308.746 469.77 308.911 469.608 309.109 469.495L328.315 458.506C328.642 458.315 329.015 458.214 329.394 458.214C329.774 458.214 330.146 458.315 330.473 458.506Z" fill="#E0E0E0"/>
<path opacity="0.4" d="M395.457 469.263L327.142 508.4L326.876 508.539H326.735L326.203 508.695L325.828 508.772H325.562C325.338 508.784 325.114 508.784 324.89 508.772H324.186L323.732 508.695L323.185 508.539C323.025 508.487 322.868 508.425 322.716 508.354L300.742 495.69L371.294 455.312L395.457 469.263Z" fill="black"/>
<path opacity="0.4" d="M330.473 458.506L343.329 466.008C343.524 466.121 343.685 466.283 343.797 466.478C343.909 466.672 343.968 466.892 343.968 467.116C343.968 467.34 343.909 467.56 343.797 467.754C343.685 467.948 343.524 468.11 343.329 468.224L324.108 479.214C323.783 479.403 323.413 479.503 323.036 479.503C322.66 479.503 322.29 479.403 321.965 479.214L309.109 471.727C308.911 471.614 308.746 471.452 308.632 471.256C308.517 471.06 308.457 470.837 308.457 470.611C308.457 470.385 308.517 470.162 308.632 469.966C308.746 469.77 308.911 469.608 309.109 469.495L328.315 458.506C328.642 458.315 329.015 458.214 329.394 458.214C329.774 458.214 330.146 458.315 330.473 458.506Z" fill="black"/>
<path d="M325.312 509.516L332.585 463.636C332.783 462.394 333.258 461.212 333.975 460.174C334.692 459.137 335.633 458.27 336.729 457.638L407.531 416.842C407.813 416.679 408.13 416.582 408.455 416.561C408.781 416.539 409.107 416.593 409.408 416.718L411.097 417.539L410.534 417.756C410.719 418.142 410.779 418.575 410.706 418.996L403.512 464.876C403.314 466.118 402.84 467.301 402.123 468.339C401.406 469.376 400.465 470.243 399.367 470.875L328.44 511.671C328.296 511.748 328.144 511.811 327.986 511.857V512.523L326.422 511.733C326.024 511.528 325.701 511.203 325.501 510.804C325.301 510.406 325.235 509.955 325.312 509.516Z" fill="#E0E0E0"/>
<path opacity="0.3" d="M325.312 509.516L332.585 463.636C332.783 462.394 333.258 461.212 333.975 460.174C334.692 459.137 335.633 458.27 336.729 457.638L407.531 416.842C407.813 416.679 408.13 416.582 408.455 416.561C408.781 416.539 409.107 416.593 409.408 416.718L411.097 417.539L410.534 417.756C410.719 418.142 410.779 418.575 410.706 418.996L403.512 464.876C403.314 466.118 402.84 467.301 402.123 468.339C401.406 469.376 400.465 470.243 399.367 470.875L328.44 511.671C328.296 511.748 328.144 511.811 327.986 511.857V512.523L326.422 511.733C326.024 511.528 325.701 511.203 325.501 510.804C325.301 510.406 325.235 509.955 325.312 509.516Z" fill="black"/>
<path d="M338.168 458.335L408.97 417.555C409.317 417.366 409.711 417.277 410.106 417.297C410.501 417.318 410.883 417.447 411.208 417.671C411.533 417.895 411.788 418.205 411.946 418.565C412.103 418.925 412.156 419.321 412.098 419.709L404.826 465.573C404.63 466.818 404.157 468.005 403.44 469.045C402.723 470.085 401.78 470.954 400.681 471.587L330.004 512.368C329.657 512.557 329.264 512.646 328.868 512.625C328.473 512.605 328.092 512.475 327.767 512.251C327.441 512.027 327.186 511.718 327.029 511.358C326.871 510.998 326.818 510.602 326.876 510.214L334.149 464.349C334.333 463.116 334.789 461.938 335.484 460.899C336.178 459.86 337.095 458.985 338.168 458.335Z" fill="#E0E0E0"/>
<path d="M372.482 459.528C370.688 460.642 369.14 462.105 367.933 463.829C366.726 465.553 365.885 467.501 365.46 469.557C364.991 473.137 367.384 474.47 370.809 472.502C372.603 471.388 374.151 469.926 375.358 468.202C376.565 466.478 377.406 464.529 377.831 462.473C378.3 458.893 375.892 457.575 372.482 459.528Z" fill="white"/>
<path d="M207.402 250.806C195.563 245.055 185.052 257.347 188.634 263.702C192.216 270.057 215.159 262.911 207.402 250.806Z" fill="#EA0B3F"/>
<path opacity="0.3" d="M207.402 250.806C195.563 245.055 185.052 257.347 188.634 263.702C192.216 270.057 215.159 262.911 207.402 250.806Z" fill="black"/>
<path d="M177.968 232.299C180.22 241.382 183.567 245.768 190.042 250.821L201.959 245.334L197.549 224.115L194.546 221.278L177.968 232.299Z" fill="#AD5755"/>
<path d="M192.872 214.877C192.399 214.528 191.847 214.298 191.265 214.206C190.683 214.113 190.086 214.161 189.527 214.345C188.967 214.529 188.46 214.843 188.049 215.262C187.637 215.681 187.334 216.192 187.164 216.752C186.673 216.363 186.067 216.142 185.438 216.122C184.809 216.102 184.191 216.285 183.676 216.644C183.146 217.026 182.75 217.564 182.545 218.182C182.341 218.799 182.337 219.465 182.534 220.085C182.246 219.802 181.878 219.613 181.479 219.541C181.08 219.469 180.668 219.518 180.298 219.682C179.58 220.044 179.024 220.657 178.734 221.402C178.405 222.151 178.169 222.937 178.03 223.743C177.597 223.578 177.124 223.54 176.67 223.633C176.215 223.727 175.797 223.947 175.465 224.27C175.146 224.602 174.928 225.017 174.837 225.467C174.746 225.916 174.785 226.383 174.949 226.812C175.654 228.525 176.546 230.157 177.608 231.679C177.875 232.241 178.256 232.743 178.726 233.153C179.197 233.564 179.748 233.874 180.345 234.066C180.787 234.14 181.242 234.089 181.657 233.919C182.072 233.749 182.43 233.467 182.691 233.105C182.944 232.735 183.089 232.303 183.108 231.857C183.127 231.41 183.021 230.968 182.8 230.578C183.312 231.173 184.003 231.59 184.772 231.766C185.541 231.942 186.347 231.868 187.07 231.555C187.68 231.155 188.13 230.557 188.342 229.863C188.553 229.169 188.513 228.424 188.227 227.757C188.453 228.199 188.808 228.563 189.246 228.801C189.685 229.039 190.186 229.14 190.683 229.09C191.168 229.013 191.625 228.812 192.008 228.508C192.392 228.204 192.69 227.806 192.872 227.354C193.046 226.9 193.124 226.416 193.102 225.931C193.081 225.446 192.96 224.97 192.747 224.533C192.897 224.953 193.155 225.327 193.495 225.618C193.835 225.908 194.246 226.106 194.687 226.192C195.114 226.28 195.557 226.25 195.968 226.105C196.379 225.96 196.742 225.706 197.017 225.37C197.387 224.746 197.593 224.041 197.618 223.318C197.642 222.596 197.484 221.878 197.158 221.232C196.494 218.695 194.984 216.455 192.872 214.877Z" fill="#C77371"/>
<path d="M208.012 257.44L201.912 245.334L204.305 237.026C204.743 235.513 204.861 233.926 204.651 232.366C204.441 230.806 203.908 229.305 203.085 227.959L201.647 225.572C201.251 224.895 200.613 224.391 199.859 224.161C199.105 223.931 198.291 223.992 197.58 224.331L186.21 229.493V229.648C186.508 230.437 186.966 231.157 187.554 231.765C188.143 232.373 188.85 232.855 189.633 233.183C190.416 233.511 191.259 233.677 192.109 233.672C192.959 233.666 193.799 233.489 194.577 233.151C187.023 238.995 186.757 243.908 189.885 250.821C193.013 257.734 197.877 268.677 197.877 268.677L208.012 257.44Z" fill="#C77371"/>
<path d="M264.754 339.202L207.402 250.852C204.868 264.91 188.634 263.748 188.634 263.748L253.008 376.418C261.595 390.6 290.748 376.65 264.754 339.202Z" fill="#EA0B3F"/>
<path opacity="0.3" d="M264.754 339.202L207.402 250.852C204.868 264.91 188.634 263.748 188.634 263.748L253.008 376.418C261.595 390.6 290.748 376.65 264.754 339.202Z" fill="white"/>
<path opacity="0.2" d="M302.493 401.45C298.565 403.904 293.833 404.765 289.281 403.853C284.729 402.941 280.706 400.326 278.048 396.552C278.345 402.318 281.911 407.867 287.62 409.076C293.328 410.285 299.85 406.565 302.493 401.45Z" fill="black"/>
<path d="M200.822 625.849V650.932L194.071 664.31L193.859 664.737L175.977 663.584L169.108 663.134L153.151 662.096V632.088L169.108 632.526L176.235 632.722L194.282 633.23L200.822 625.849Z" fill="#FF6F61"/>
<path opacity="0.1" d="M200.822 627.325V650.933L199.178 654.208L197.476 657.553L194.071 664.311L194.458 639.227L194.529 634.164L197.769 630.635L199.19 629.101L200.822 627.325Z" fill="black"/>
<path d="M201.738 619.183V627.948L200.822 629.378L199.19 631.938L197.734 634.21L194.529 639.227H194.458L151.753 637.07V628.421L151.859 628.305L156.955 622.897L158.798 620.924L162.145 617.384L201.738 619.183Z" fill="#FF6F61"/>
<path opacity="0.1" d="M194.529 630.589V639.227L151.753 637.071V628.421L151.859 628.306L194.529 630.589Z" fill="black"/>
<path opacity="0.15" d="M201.738 619.183V627.948L194.529 639.227V630.589L201.738 619.183Z" fill="black"/>
<path d="M199.19 623.208V629.101V631.938L199.178 654.208L197.476 657.552L197.734 634.21L197.769 630.635L197.828 625.365L156.955 622.897L158.798 620.925L199.19 623.208Z" fill="#3F3D56"/>
<path d="M179.135 623.508L176.27 629.609L176.235 632.723L175.977 663.584L169.108 663.134V629.205L172.771 623.508H179.135Z" fill="#3F3D56"/>
<path d="M169.695 623.911C168.042 624.456 166.264 624.52 164.575 624.096C164.244 624.032 163.934 623.889 163.671 623.681C163.392 623.374 163.202 623 163.119 622.597C162.822 621.765 162.656 620.894 162.626 620.013C162.617 619.571 162.712 619.133 162.903 618.733C163.095 618.333 163.378 617.982 163.73 617.707C163.877 617.616 164.014 617.512 164.141 617.395C164.294 617.204 164.406 616.985 164.47 616.75C164.963 615.285 165.937 613.74 167.487 613.497C169.037 613.255 170.235 614.27 171.339 615.193L173.769 617.222C174.041 616.512 174.525 615.899 175.157 615.464C175.789 615.028 176.54 614.789 177.312 614.779C178.085 614.769 178.842 614.988 179.486 615.408C180.129 615.827 180.629 616.427 180.92 617.13C182.392 615.503 184.246 614.252 186.321 613.486C186.544 613.387 186.786 613.336 187.031 613.336C187.276 613.336 187.519 613.387 187.742 613.486C188.003 613.674 188.199 613.935 188.305 614.236C188.97 615.655 189.33 617.194 189.362 618.756C189.533 618.702 189.718 618.704 189.887 618.762C190.057 618.821 190.202 618.932 190.302 619.079C190.49 619.378 190.596 619.72 190.607 620.071C190.677 620.618 190.712 621.169 190.712 621.72C190.767 622.301 190.609 622.882 190.266 623.358C189.98 623.605 189.644 623.791 189.28 623.902C188.915 624.013 188.531 624.048 188.153 624.004C188.227 624.096 188.282 624.203 188.312 624.317C188.342 624.431 188.347 624.551 188.327 624.667C188.307 624.783 188.262 624.894 188.196 624.993C188.129 625.091 188.043 625.174 187.941 625.238C187.507 625.468 187.012 625.564 186.521 625.514C184.622 625.658 182.721 625.257 181.049 624.361C180.427 623.958 179.875 623.416 179.276 623.012C177.688 622.162 175.868 621.827 174.074 622.055C172.478 622.112 171.209 623.416 169.695 623.911Z" fill="#3F3D56"/>
<path d="M169.413 623.508C169.413 623.508 153.644 625.664 151.448 635.041L154.748 634.556L157.096 638.639C157.096 638.639 159.55 629.516 166.759 627.36C169.936 626.319 173.175 625.471 176.458 624.823C176.458 624.823 181.472 625.976 185.992 640.311L188.564 636.851L193.084 637.808C193.084 637.808 189.785 626.645 180.861 623.531L169.413 623.508Z" fill="#3F3D56"/>
<path d="M252.603 623.554V660.586L242.635 680.341L242.318 680.964L215.934 679.257L205.789 678.588L182.247 677.066V632.769L205.789 633.426L216.321 633.714L242.952 634.452L252.603 623.554Z" fill="#EA0B3F"/>
<path opacity="0.1" d="M252.603 625.745V660.586L250.161 665.418L247.672 670.354V670.365L242.634 680.341L243.198 643.309L243.315 635.836L248.094 630.635L250.184 628.363L252.603 625.745Z" fill="black"/>
<path d="M253.954 613.717V626.656L252.603 628.778L250.184 632.561L248.036 635.906L243.316 643.31H243.198L180.168 640.127V627.36L180.333 627.198L187.859 619.195L190.583 616.3L195.503 611.064L253.954 613.717Z" fill="#EA0B3F"/>
<path opacity="0.1" d="M243.316 630.555V643.31L180.168 640.127V627.36L180.333 627.199L243.316 630.555Z" fill="black"/>
<path opacity="0.15" d="M253.954 613.717V626.656L243.316 643.31V630.554L253.954 613.717Z" fill="black"/>
<path d="M250.184 619.679V628.363V632.561L250.161 665.418L247.672 670.354L248.036 635.906L248.094 630.635L248.188 622.85L187.859 619.195L190.583 616.3L250.184 619.679Z" fill="#3F3D56"/>
<path d="M220.583 620.094L216.356 629.113L216.321 633.714L215.934 679.257L205.789 678.588V628.513L211.202 620.094H220.583Z" fill="#3F3D56"/>
<path d="M206.658 620.705C204.215 621.501 201.591 621.593 199.096 620.971C198.613 620.874 198.158 620.669 197.769 620.371C197.359 619.915 197.076 619.363 196.947 618.768C196.506 617.54 196.264 616.252 196.231 614.951C196.206 614.291 196.338 613.634 196.617 613.033C196.897 612.432 197.315 611.904 197.84 611.491C198.061 611.361 198.27 611.21 198.462 611.041C198.685 610.758 198.845 610.432 198.932 610.084C199.671 607.927 201.104 605.632 203.405 605.286C205.707 604.94 207.456 606.439 209.088 607.789L212.611 610.787C213.007 609.732 213.719 608.82 214.653 608.17C215.588 607.521 216.701 607.165 217.846 607.15C218.991 607.135 220.113 607.461 221.065 608.086C222.017 608.711 222.754 609.604 223.178 610.649C225.349 608.245 228.087 606.4 231.151 605.275C231.473 605.109 231.829 605.016 232.193 605.002C232.556 604.988 232.918 605.054 233.253 605.194C233.634 605.471 233.924 605.852 234.086 606.29C235.061 608.388 235.589 610.661 235.636 612.967C235.888 612.88 236.162 612.879 236.414 612.965C236.665 613.051 236.88 613.218 237.022 613.44C237.298 613.882 237.455 614.386 237.48 614.904C237.574 615.712 237.621 616.525 237.621 617.338C237.701 618.195 237.473 619.052 236.975 619.76C236.549 620.121 236.052 620.392 235.514 620.555C234.977 620.717 234.411 620.769 233.852 620.705C233.963 620.842 234.044 621 234.089 621.169C234.133 621.338 234.141 621.514 234.111 621.687C234.081 621.859 234.014 622.023 233.915 622.168C233.815 622.313 233.686 622.436 233.535 622.528C232.894 622.873 232.159 623.014 231.433 622.931C228.65 622.931 225.679 622.827 223.355 621.305C222.439 620.705 221.675 619.91 220.76 619.31C218.505 617.845 215.675 617.776 213.069 617.891C210.767 618.053 208.9 619.967 206.658 620.705Z" fill="#3F3D56"/>
<path d="M206.153 620.105C206.153 620.105 182.881 623.289 179.628 637.116L184.501 636.401L187.93 642.433C187.93 642.433 191.534 628.963 202.184 625.768C212.834 622.574 216.615 622.055 216.615 622.055C216.615 622.055 224.012 623.819 230.705 644.912L234.498 639.769L241.167 641.187C241.167 641.187 236.294 624.707 223.132 620.105H206.153Z" fill="#3F3D56"/>
<path d="M261.926 672.833C261.926 675.082 252.826 672.568 249.562 674.482C247.496 675.636 248.646 684.343 245.523 685.358C243.057 686.154 239.852 686.396 236.834 687.042C234.204 687.607 230.963 686.511 228.004 686.938C225.292 687.33 222.227 685.715 219.28 685.981C216.521 686.223 213.609 683.674 210.674 683.755C207.738 683.835 205.202 683.893 202.29 683.893C199.378 683.893 196.489 688.506 193.707 688.391C190.924 688.276 188.435 682.048 185.687 681.806C182.728 681.54 179.217 687.757 176.517 687.376C173.534 686.949 170.822 685.565 168.192 685.012C165.174 684.366 164.094 678.461 161.628 677.665C158.505 676.662 151.988 684.078 149.887 682.867C146.622 680.952 146 675.082 146 672.833C146 670.584 149.147 668.877 152.423 666.952C154.478 665.798 158.294 668.393 161.393 667.39C163.859 666.582 166.031 665.349 169.061 664.703C171.679 664.138 173.335 657.564 176.305 657.137C179.018 656.757 182.341 660.263 185.288 659.997C188.047 659.755 190.971 662.65 193.895 662.535C196.818 662.419 199.343 657.598 202.255 657.598C205.167 657.598 207.996 658.371 210.791 658.498C213.585 658.625 216.098 663.653 218.857 663.907C221.805 664.161 225.186 658.867 227.887 659.294C230.869 659.721 233.652 660.447 236.271 661.024C239.3 661.67 240.721 666.421 243.198 667.217C246.31 668.22 250.525 664.979 252.592 666.19C255.891 668.059 261.926 670.584 261.926 672.833Z" fill="#EDEDF4"/>
</svg>
