<svg width="458" height="312" viewBox="0 0 458 312" fill="none" xmlns="http://www.w3.org/2000/svg">
<path opacity="0.1" d="M0.210696 61.1323C22.8017 33.362 50.1803 11.7368 80.6372 -2.39288C111.094 -16.5226 143.975 -22.8534 177.227 -20.9901L555.204 -72.0497C569.478 -76.4293 584.033 -79.6254 598.769 -81.6157C609.348 -83.0448 619.881 -83.8505 630.368 -84.0329C693.962 -85.1106 757.339 -63.85 812.646 -22.8853C867.954 18.0794 912.761 76.9479 941.517 146.427C921.418 229.612 849.95 296.529 757.251 309.051C666.92 321.253 582.278 278.3 539.715 206.803C524.272 212.43 508.367 216.354 492.192 218.527C398.567 231.174 311.099 184.541 270.164 108.391C246.459 120.842 221.161 128.924 195.099 132.374C118.734 142.646 46.4684 113.562 0.210696 61.1323Z" fill="#EA0B3F"/>
</svg>
