<svg width="824" height="902" viewBox="0 0 824 902" fill="none" xmlns="http://www.w3.org/2000/svg">
<path opacity="0.1" d="M824 567.072C823.975 615.455 814.889 663.257 797.368 707.177C779.848 751.098 754.31 790.092 722.517 821.469C690.724 852.846 653.434 875.859 613.218 888.92C573.003 901.981 530.82 904.778 489.58 897.12H32.1377C14.4695 899.929 -3.34354 901.338 -21.1773 901.337C-33.9801 901.337 -46.6285 900.63 -59.1225 899.216C-155.254 888.404 -244.46 836.488 -309.334 753.599C-374.209 670.711 -410.098 562.795 -410 450.909C-410 202.137 -235.913 0.47998 -21.1773 0.47998C151.768 0.47998 298.314 131.291 348.818 312.162C400.914 260.818 467.108 232.681 535.507 232.806C694.816 232.806 824 382.458 824 567.072Z" fill="#EA0B3F"/>
</svg>
