<svg width="233" height="549" viewBox="0 0 233 549" fill="none" xmlns="http://www.w3.org/2000/svg">
<path d="M55 549C83.1665 549 106 526.167 106 498C106 469.833 83.1665 447 55 447C26.8335 447 4 469.833 4 498C4 526.167 26.8335 549 55 549Z" fill="#00B8A9" fill-opacity="0.2"/>
<path d="M165 406C202.555 406 233 375.555 233 338C233 300.445 202.555 270 165 270C127.445 270 97 300.445 97 338C97 375.555 127.445 406 165 406Z" fill="#00B8A9" fill-opacity="0.2"/>
<path d="M108.283 216.566C168.086 216.566 216.566 168.086 216.566 108.283C216.566 48.4799 168.086 0 108.283 0C48.4799 0 0 48.4799 0 108.283C0 168.086 48.4799 216.566 108.283 216.566Z" fill="#00B8A9" fill-opacity="0.2"/>
</svg>
