<svg version="1.1" id="Layer_1" xmlns="http://www.w3.org/2000/svg" xmlns:xlink="http://www.w3.org/1999/xlink" x="0px" y="0px"
	 width="100%" viewBox="0 0 1183 180" enable-background="new 0 0 1183 180" xml:space="preserve">
<path fill="#FFFFFF" opacity="1.000000" stroke="none" 
	d="
M641.000000,181.000000 
	C427.666656,181.000000 214.333328,181.000000 1.000000,181.000000 
	C1.000000,177.283539 1.000000,173.619446 1.226550,169.485321 
	C1.453100,169.015274 1.901161,169.084381 1.941677,169.460327 
	C3.479400,176.065323 7.043953,179.012726 13.069241,179.003769 
	C20.488026,178.992767 24.810137,173.927017 24.835619,164.931946 
	C24.889870,145.781052 24.852278,126.629906 24.852327,107.478859 
	C24.852331,105.723404 24.852327,103.967941 24.852327,101.937416 
	C45.325699,101.937416 65.120430,101.959000 84.914978,101.910141 
	C87.395012,101.904022 90.025627,101.982162 92.320404,101.220070 
	C96.411850,99.861290 99.584320,97.363708 100.024643,92.480598 
	C100.489220,87.328438 98.301079,83.570206 93.802307,81.644806 
	C91.176842,80.521149 88.002258,80.343918 85.071144,80.326004 
	C66.919968,80.215073 48.767769,80.270226 30.615911,80.270218 
	C28.841072,80.270218 27.066231,80.270210 25.076912,80.270210 
	C25.076912,61.975163 25.076912,44.240997 25.076912,26.007347 
	C27.049349,26.007347 28.833588,26.007347 30.617828,26.007347 
	C57.262760,26.007345 83.907700,26.015877 110.552605,25.991322 
	C112.709641,25.989332 114.908821,25.986521 117.014900,25.591829 
	C121.962807,24.664557 125.694893,20.146833 125.642807,15.474489 
	C125.584747,10.266387 122.004341,5.892968 116.853516,5.034296 
	C114.414688,4.627729 111.909760,4.457376 109.434441,4.454317 
	C78.959351,4.416654 48.484180,4.419461 18.009077,4.451787 
	C15.862054,4.454064 13.697908,4.652021 11.571844,4.964149 
	C5.560824,5.846628 2.670162,8.862040 1.651726,14.906183 
	C1.432082,14.917562 1.000000,15.000000 1.000000,15.000000 
	C1.000000,10.337285 1.000000,5.674570 1.000000,1.005928 
	C167.688095,1.000000 334.376190,1.000000 501.317505,1.287930 
	C494.249847,3.475162 491.998444,6.350764 491.996368,13.831035 
	C491.992706,26.985901 491.995270,40.140770 491.995270,53.295635 
	C491.995270,57.873585 491.995300,62.451530 491.995300,67.986832 
	C489.665131,66.405838 488.220581,65.413773 486.764191,64.439423 
	C467.313263,51.426537 446.596527,49.425613 425.319214,58.741543 
	C398.861603,70.325600 384.710205,98.866425 390.120819,127.694862 
	C395.012329,153.757217 420.332306,175.742416 447.873901,177.374405 
	C482.690704,179.437515 513.833679,148.225403 513.154053,115.485519 
	C512.473511,82.695740 512.799072,49.878605 513.150269,17.078455 
	C513.237061,8.971758 510.945892,3.489535 503.000000,1.000000 
	C730.000000,1.000000 957.000000,1.000000 1184.000000,1.000000 
	C1184.000000,20.420382 1184.000000,39.742336 1183.635742,59.448563 
	C1182.505615,58.047119 1182.048584,56.029671 1180.916016,54.518764 
	C1177.400757,49.829365 1172.364014,50.635590 1167.336792,50.938519 
	C1139.275757,52.629440 1113.224609,73.896675 1107.240723,101.488014 
	C1102.541504,123.155258 1105.550171,145.303986 1105.339966,167.235855 
	C1105.289429,172.504517 1110.252563,175.978912 1115.615234,176.007767 
	C1122.492188,176.044769 1126.639038,171.343231 1126.704102,163.045425 
	C1126.804688,150.216446 1126.656250,137.385437 1126.767822,124.556648 
	C1126.812622,119.409859 1126.637451,114.139961 1127.643555,109.143837 
	C1131.844971,88.281631 1148.205566,73.820587 1169.999634,72.207504 
	C1176.932739,71.694344 1181.282227,69.041565 1184.000000,63.000000 
	C1184.000000,102.307106 1184.000000,141.614212 1184.000000,181.000000 
	C1005.645203,181.000000 827.290466,181.000000 648.540771,180.665604 
	C656.498657,172.223541 665.013184,164.272720 673.111389,155.918304 
	C675.746887,153.199432 675.717773,149.425369 672.762695,146.442917 
	C665.139343,138.748825 657.544983,131.020721 649.729126,123.525154 
	C646.181152,120.122559 641.105774,121.099136 638.640442,125.264175 
	C636.082764,129.585312 638.212097,132.937897 641.195496,135.896835 
	C643.588867,138.270584 646.226624,140.397964 649.350098,143.160141 
	C647.527222,143.780441 647.101807,144.051651 646.676331,144.051895 
	C620.512512,144.066589 594.346802,144.225693 568.186096,143.938797 
	C561.485535,143.865311 555.574829,140.847427 551.772095,134.944336 
	C546.800598,127.227081 546.422546,119.073067 550.282410,110.800255 
	C554.309326,102.169449 561.952148,99.291939 570.690918,99.071762 
	C582.682129,98.769630 594.686646,98.991165 606.685425,98.996223 
	C628.516174,99.005432 650.366394,98.453217 672.171997,99.199966 
	C692.138794,99.883751 711.631287,82.795723 711.955811,62.773609 
	C712.269958,43.389835 695.572998,24.345650 672.924316,24.538807 
	C649.428345,24.739189 625.929321,24.580847 602.431641,24.579416 
	C600.696960,24.579311 598.962341,24.579403 595.968140,24.579403 
	C598.227417,22.197454 599.537659,20.792149 600.874817,19.412859 
	C602.266602,17.977163 603.747559,16.623043 605.078003,15.133622 
	C608.139099,11.706776 608.218262,7.268023 605.351135,4.366063 
	C602.302368,1.280270 598.338013,1.366944 594.784790,4.793385 
	C587.378418,11.935429 579.997009,19.104904 572.705994,26.364197 
	C569.459290,29.596737 569.105774,33.925037 572.205627,37.138451 
	C579.491699,44.691303 586.940918,52.098083 594.568298,59.305599 
	C598.310852,62.842159 602.794250,62.578327 605.656311,59.350990 
	C608.321472,56.345703 608.076660,52.073227 604.754456,48.604324 
	C602.167969,45.903538 599.310913,43.461849 596.440613,40.780350 
	C597.534363,40.062893 597.783569,39.756222 598.032593,39.756393 
	C624.692139,39.774891 651.354614,39.602444 678.009705,39.966324 
	C688.075806,40.103741 695.902588,48.341469 697.014038,58.463284 
	C698.316772,70.326126 692.554016,80.427238 682.346313,83.058891 
	C678.078064,84.159279 673.462463,84.211517 669.003357,84.224045 
	C636.340149,84.315834 603.676086,84.165665 571.013367,84.319298 
	C550.712280,84.414795 533.235657,101.518539 533.004211,121.086906 
	C532.771240,140.781967 550.372986,158.745041 570.490540,158.910233 
	C594.653198,159.108658 618.818665,158.961639 642.982910,158.964142 
	C644.640503,158.964325 646.298035,158.964172 648.551025,158.964172 
	C643.482910,166.237579 632.064392,170.290451 641.000000,181.000000 
M760.470703,169.031906 
	C785.437073,182.220703 809.084045,179.338898 831.821472,162.641281 
	C831.895081,164.309097 831.949768,165.438950 831.994141,166.569214 
	C832.251221,173.122681 836.309265,177.057724 842.759460,177.005081 
	C849.353516,176.951248 853.215698,172.623093 853.272095,164.679749 
	C853.384338,148.863525 853.491516,133.042587 853.209900,117.230568 
	C853.101440,111.143280 852.744934,104.845108 851.109314,99.034920 
	C839.685730,58.454338 794.548645,40.696644 758.456421,62.332573 
	C718.847412,86.076645 719.602539,145.811142 760.470703,169.031906 
M1076.951172,75.525032 
	C1060.556519,56.330887 1039.768311,49.040424 1015.361511,54.774548 
	C982.814331,62.421177 963.012329,92.197426 968.306946,125.355797 
	C971.998657,148.475403 985.676392,164.813736 1007.382019,173.059952 
	C1029.306763,181.389389 1050.242676,177.738129 1068.639282,162.941772 
	C1070.950439,161.082825 1072.067749,156.664993 1072.159302,153.388672 
	C1072.277588,149.157562 1069.287598,146.474152 1065.057251,144.916443 
	C1059.226929,142.769653 1055.637939,146.607941 1051.557495,149.179306 
	C1033.845947,160.340561 1009.706604,157.401962 995.932007,138.163467 
	C986.078735,124.401604 986.741211,104.860878 996.809021,91.009224 
	C1006.692078,77.411789 1024.772339,71.175781 1041.123535,76.289696 
	C1054.823975,80.574554 1063.976685,89.690865 1068.361450,104.058716 
	C1066.574463,104.211189 1065.302124,104.410927 1064.029297,104.414085 
	C1052.864258,104.441818 1041.695435,104.261223 1030.535400,104.498726 
	C1023.148560,104.655937 1018.882935,108.969101 1018.993408,115.384338 
	C1019.104004,121.806961 1023.591919,125.882492 1030.935913,125.915192 
	C1047.099976,125.987183 1063.265015,126.008186 1079.428711,125.907372 
	C1087.379517,125.857788 1091.982666,120.799644 1091.629028,112.840668 
	C1091.013916,98.993629 1086.483643,86.643829 1076.951172,75.525032 
M145.829254,58.268578 
	C117.492607,72.783257 104.900818,98.195946 111.036392,129.299545 
	C116.416229,156.571960 144.431503,181.445602 180.151047,176.652542 
	C209.282043,172.743607 232.233337,146.372772 233.335419,119.347229 
	C234.355408,94.334808 224.030670,75.284294 203.291946,62.090000 
	C185.355408,50.678513 166.105789,50.384045 145.829254,58.268578 
M369.989563,94.537086 
	C364.013519,78.167259 353.125061,65.821793 337.413147,58.779678 
	C315.645508,49.023342 294.162994,50.660217 274.796875,65.141182 
	C254.514252,80.307426 246.478851,101.088547 250.235931,126.050270 
	C253.833664,149.953308 274.439178,171.126389 297.921295,175.892487 
	C323.339478,181.051544 348.977692,170.756348 362.880859,149.852524 
	C374.189636,132.849380 376.220062,114.600143 369.989563,94.537086 
M923.172119,116.682976 
	C919.118652,125.516663 915.065186,134.350342 910.714233,143.832214 
	C901.586426,124.196411 892.832520,105.362549 884.076294,86.529701 
	C880.039246,77.846725 876.149658,69.090645 871.905518,60.510044 
	C868.991211,54.618221 863.609802,52.891190 858.201233,55.587688 
	C852.154419,58.602413 850.455811,63.434113 853.376648,69.587090 
	C868.908997,102.306854 884.498108,134.999756 899.968201,167.748901 
	C902.257996,172.596054 905.071838,176.181061 911.032104,176.030502 
	C917.006226,175.879608 919.681885,171.936340 921.898743,167.216843 
	C928.367737,153.445175 934.888123,139.697632 941.397583,125.944984 
	C950.463562,106.790901 959.585327,87.662827 968.530945,68.452705 
	C969.365417,66.660782 969.627991,64.261757 969.257690,62.315567 
	C968.280823,57.181374 964.333130,54.757790 959.593750,54.453571 
	C954.858582,54.149624 950.931763,56.218449 948.796082,60.911579 
	C940.425415,79.305634 932.004272,97.676750 923.172119,116.682976 
z"/>
<path fill="#34B118" opacity="1.000000" stroke="none" 
	d="
M641.437500,181.000000 
	C632.064392,170.290451 643.482910,166.237579 648.551025,158.964172 
	C646.298035,158.964172 644.640503,158.964325 642.982910,158.964142 
	C618.818665,158.961639 594.653198,159.108658 570.490540,158.910233 
	C550.372986,158.745041 532.771240,140.781967 533.004211,121.086906 
	C533.235657,101.518539 550.712280,84.414795 571.013367,84.319298 
	C603.676086,84.165665 636.340149,84.315834 669.003357,84.224045 
	C673.462463,84.211517 678.078064,84.159279 682.346313,83.058891 
	C692.554016,80.427238 698.316772,70.326126 697.014038,58.463284 
	C695.902588,48.341469 688.075806,40.103741 678.009705,39.966324 
	C651.354614,39.602444 624.692139,39.774891 598.032593,39.756393 
	C597.783569,39.756222 597.534363,40.062893 596.440613,40.780350 
	C599.310913,43.461849 602.167969,45.903538 604.754456,48.604324 
	C608.076660,52.073227 608.321472,56.345703 605.656311,59.350990 
	C602.794250,62.578327 598.310852,62.842159 594.568298,59.305599 
	C586.940918,52.098083 579.491699,44.691303 572.205627,37.138451 
	C569.105774,33.925037 569.459290,29.596737 572.705994,26.364197 
	C579.997009,19.104904 587.378418,11.935429 594.784790,4.793385 
	C598.338013,1.366944 602.302368,1.280270 605.351135,4.366063 
	C608.218262,7.268023 608.139099,11.706776 605.078003,15.133622 
	C603.747559,16.623043 602.266602,17.977163 600.874817,19.412859 
	C599.537659,20.792149 598.227417,22.197454 595.968140,24.579403 
	C598.962341,24.579403 600.696960,24.579311 602.431641,24.579416 
	C625.929321,24.580847 649.428345,24.739189 672.924316,24.538807 
	C695.572998,24.345650 712.269958,43.389835 711.955811,62.773609 
	C711.631287,82.795723 692.138794,99.883751 672.171997,99.199966 
	C650.366394,98.453217 628.516174,99.005432 606.685425,98.996223 
	C594.686646,98.991165 582.682129,98.769630 570.690918,99.071762 
	C561.952148,99.291939 554.309326,102.169449 550.282410,110.800255 
	C546.422546,119.073067 546.800598,127.227081 551.772095,134.944336 
	C555.574829,140.847427 561.485535,143.865311 568.186096,143.938797 
	C594.346802,144.225693 620.512512,144.066589 646.676331,144.051895 
	C647.101807,144.051651 647.527222,143.780441 649.350098,143.160141 
	C646.226624,140.397964 643.588867,138.270584 641.195496,135.896835 
	C638.212097,132.937897 636.082764,129.585312 638.640442,125.264175 
	C641.105774,121.099136 646.181152,120.122559 649.729126,123.525154 
	C657.544983,131.020721 665.139343,138.748825 672.762695,146.442917 
	C675.717773,149.425369 675.746887,153.199432 673.111389,155.918304 
	C665.013184,164.272720 656.498657,172.223541 648.072937,180.665604 
	C645.958313,181.000000 643.916687,181.000000 641.437500,181.000000 
z"/>
<path fill="#50DE0D" opacity="1.000000" stroke="none" 
	d="
M502.750000,1.000000 
	C510.945892,3.489535 513.237061,8.971758 513.150269,17.078455 
	C512.799072,49.878605 512.473511,82.695740 513.154053,115.485519 
	C513.833679,148.225403 482.690704,179.437515 447.873901,177.374405 
	C420.332306,175.742416 395.012329,153.757217 390.120819,127.694862 
	C384.710205,98.866425 398.861603,70.325600 425.319214,58.741543 
	C446.596527,49.425613 467.313263,51.426537 486.764191,64.439423 
	C488.220581,65.413773 489.665131,66.405838 491.995300,67.986832 
	C491.995300,62.451530 491.995270,57.873585 491.995270,53.295635 
	C491.995270,40.140770 491.992706,26.985901 491.996368,13.831035 
	C491.998444,6.350764 494.249847,3.475162 501.785339,1.287930 
	C502.000000,1.000000 502.500000,1.000000 502.750000,1.000000 
M410.710144,113.604408 
	C410.153015,129.447220 416.666656,141.775482 430.074707,149.911301 
	C444.455139,158.637100 459.494110,158.236938 473.328613,149.026260 
	C488.089630,139.198730 494.084625,124.580307 490.789368,107.102531 
	C487.250824,88.334366 469.237518,72.686981 446.210968,74.995079 
	C428.447540,76.775642 410.863129,93.118027 410.710144,113.604408 
z"/>
<path fill="#51DF0E" opacity="1.000000" stroke="none" 
	d="
M1184.000000,62.625000 
	C1181.282227,69.041565 1176.932739,71.694344 1169.999634,72.207504 
	C1148.205566,73.820587 1131.844971,88.281631 1127.643555,109.143837 
	C1126.637451,114.139961 1126.812622,119.409859 1126.767822,124.556648 
	C1126.656250,137.385437 1126.804688,150.216446 1126.704102,163.045425 
	C1126.639038,171.343231 1122.492188,176.044769 1115.615234,176.007767 
	C1110.252563,175.978912 1105.289429,172.504517 1105.339966,167.235855 
	C1105.550171,145.303986 1102.541504,123.155258 1107.240723,101.488014 
	C1113.224609,73.896675 1139.275757,52.629440 1167.336792,50.938519 
	C1172.364014,50.635590 1177.400757,49.829365 1180.916016,54.518764 
	C1182.048584,56.029671 1182.505615,58.047119 1183.635742,59.916416 
	C1184.000000,60.750000 1184.000000,61.500000 1184.000000,62.625000 
z"/>
<path fill="#A5ED83" opacity="1.000000" stroke="none" 
	d="
M1.000000,15.468657 
	C1.000000,15.000000 1.432082,14.917562 1.693481,15.380235 
	C1.936973,66.923401 1.919067,118.003891 1.901161,169.084381 
	C1.901161,169.084381 1.453100,169.015274 1.226550,169.007629 
	C1.000000,117.979103 1.000000,66.958206 1.000000,15.468657 
z"/>
<path fill="#51DE0E" opacity="1.000000" stroke="none" 
	d="
M1.941677,169.460327 
	C1.919067,118.003891 1.936973,66.923401 1.913125,15.368856 
	C2.670162,8.862040 5.560824,5.846628 11.571844,4.964149 
	C13.697908,4.652021 15.862054,4.454064 18.009077,4.451787 
	C48.484180,4.419461 78.959351,4.416654 109.434441,4.454317 
	C111.909760,4.457376 114.414688,4.627729 116.853516,5.034296 
	C122.004341,5.892968 125.584747,10.266387 125.642807,15.474489 
	C125.694893,20.146833 121.962807,24.664557 117.014900,25.591829 
	C114.908821,25.986521 112.709641,25.989332 110.552605,25.991322 
	C83.907700,26.015877 57.262760,26.007345 30.617828,26.007347 
	C28.833588,26.007347 27.049349,26.007347 25.076912,26.007347 
	C25.076912,44.240997 25.076912,61.975163 25.076912,80.270210 
	C27.066231,80.270210 28.841072,80.270218 30.615911,80.270218 
	C48.767769,80.270226 66.919968,80.215073 85.071144,80.326004 
	C88.002258,80.343918 91.176842,80.521149 93.802307,81.644806 
	C98.301079,83.570206 100.489220,87.328438 100.024643,92.480598 
	C99.584320,97.363708 96.411850,99.861290 92.320404,101.220070 
	C90.025627,101.982162 87.395012,101.904022 84.914978,101.910141 
	C65.120430,101.959000 45.325699,101.937416 24.852327,101.937416 
	C24.852327,103.967941 24.852331,105.723404 24.852327,107.478859 
	C24.852278,126.629906 24.889870,145.781052 24.835619,164.931946 
	C24.810137,173.927017 20.488026,178.992767 13.069241,179.003769 
	C7.043953,179.012726 3.479400,176.065323 1.941677,169.460327 
z"/>
<path fill="#50DE0D" opacity="1.000000" stroke="none" 
	d="
M760.135986,168.876724 
	C719.602539,145.811142 718.847412,86.076645 758.456421,62.332573 
	C794.548645,40.696644 839.685730,58.454338 851.109314,99.034920 
	C852.744934,104.845108 853.101440,111.143280 853.209900,117.230568 
	C853.491516,133.042587 853.384338,148.863525 853.272095,164.679749 
	C853.215698,172.623093 849.353516,176.951248 842.759460,177.005081 
	C836.309265,177.057724 832.251221,173.122681 831.994141,166.569214 
	C831.949768,165.438950 831.895081,164.309097 831.821472,162.641281 
	C809.084045,179.338898 785.437073,182.220703 760.135986,168.876724 
M789.660706,155.638809 
	C791.483459,155.495987 793.306519,155.356918 795.128906,155.209747 
	C811.778503,153.865036 823.013977,144.612579 828.868713,129.716568 
	C835.028076,114.045563 832.091797,99.252281 820.054504,86.973328 
	C798.253967,64.734840 761.463257,73.610878 752.422241,103.422646 
	C744.473145,129.634003 763.871460,154.654938 789.660706,155.638809 
z"/>
<path fill="#51DF0E" opacity="1.000000" stroke="none" 
	d="
M1077.200195,75.779968 
	C1086.483643,86.643829 1091.013916,98.993629 1091.629028,112.840668 
	C1091.982666,120.799644 1087.379517,125.857788 1079.428711,125.907372 
	C1063.265015,126.008186 1047.099976,125.987183 1030.935913,125.915192 
	C1023.591919,125.882492 1019.104004,121.806961 1018.993408,115.384338 
	C1018.882935,108.969101 1023.148560,104.655937 1030.535400,104.498726 
	C1041.695435,104.261223 1052.864258,104.441818 1064.029297,104.414085 
	C1065.302124,104.410927 1066.574463,104.211189 1068.361450,104.058716 
	C1063.976685,89.690865 1054.823975,80.574554 1041.123535,76.289696 
	C1024.772339,71.175781 1006.692078,77.411789 996.809021,91.009224 
	C986.741211,104.860878 986.078735,124.401604 995.932007,138.163467 
	C1009.706604,157.401962 1033.845947,160.340561 1051.557495,149.179306 
	C1055.637939,146.607941 1059.226929,142.769653 1065.057251,144.916443 
	C1069.287598,146.474152 1072.277588,149.157562 1072.159302,153.388672 
	C1072.067749,156.664993 1070.950439,161.082825 1068.639282,162.941772 
	C1050.242676,177.738129 1029.306763,181.389389 1007.382019,173.059952 
	C985.676392,164.813736 971.998657,148.475403 968.306946,125.355797 
	C963.012329,92.197426 982.814331,62.421177 1015.361511,54.774548 
	C1039.768311,49.040424 1060.556519,56.330887 1077.200195,75.779968 
z"/>
<path fill="#51DE0D" opacity="1.000000" stroke="none" 
	d="
M146.181946,58.123215 
	C166.105789,50.384045 185.355408,50.678513 203.291946,62.090000 
	C224.030670,75.284294 234.355408,94.334808 233.335419,119.347229 
	C232.233337,146.372772 209.282043,172.743607 180.151047,176.652542 
	C144.431503,181.445602 116.416229,156.571960 111.036392,129.299545 
	C104.900818,98.195946 117.492607,72.783257 146.181946,58.123215 
M165.494705,155.074463 
	C169.134171,155.105118 172.805618,155.464172 176.407883,155.113098 
	C199.726227,152.840546 215.056015,131.555603 211.149475,107.066444 
	C207.741028,85.699669 184.382980,70.400955 162.832657,75.420601 
	C143.297165,79.970932 130.411530,96.476578 130.923065,116.294670 
	C131.425934,135.776749 145.028000,151.414032 165.494705,155.074463 
z"/>
<path fill="#51DE0E" opacity="1.000000" stroke="none" 
	d="
M370.162415,94.898422 
	C376.220062,114.600143 374.189636,132.849380 362.880859,149.852524 
	C348.977692,170.756348 323.339478,181.051544 297.921295,175.892487 
	C274.439178,171.126389 253.833664,149.953308 250.235931,126.050270 
	C246.478851,101.088547 254.514252,80.307426 274.796875,65.141182 
	C294.162994,50.660217 315.645508,49.023342 337.413147,58.779678 
	C353.125061,65.821793 364.013519,78.167259 370.162415,94.898422 
M344.422455,138.844208 
	C353.246674,125.617271 354.803131,111.576233 347.788177,97.295738 
	C340.694641,82.855331 328.661774,75.360916 312.445679,74.687393 
	C282.448273,73.441483 261.526642,106.010880 274.916107,132.877670 
	C288.678253,160.492325 326.386536,163.310928 344.422455,138.844208 
z"/>
<path fill="#50DE0D" opacity="1.000000" stroke="none" 
	d="
M923.387024,116.369675 
	C932.004272,97.676750 940.425415,79.305634 948.796082,60.911579 
	C950.931763,56.218449 954.858582,54.149624 959.593750,54.453571 
	C964.333130,54.757790 968.280823,57.181374 969.257690,62.315567 
	C969.627991,64.261757 969.365417,66.660782 968.530945,68.452705 
	C959.585327,87.662827 950.463562,106.790901 941.397583,125.944984 
	C934.888123,139.697632 928.367737,153.445175 921.898743,167.216843 
	C919.681885,171.936340 917.006226,175.879608 911.032104,176.030502 
	C905.071838,176.181061 902.257996,172.596054 899.968201,167.748901 
	C884.498108,134.999756 868.908997,102.306854 853.376648,69.587090 
	C850.455811,63.434113 852.154419,58.602413 858.201233,55.587688 
	C863.609802,52.891190 868.991211,54.618221 871.905518,60.510044 
	C876.149658,69.090645 880.039246,77.846725 884.076294,86.529701 
	C892.832520,105.362549 901.586426,124.196411 910.714233,143.832214 
	C915.065186,134.350342 919.118652,125.516663 923.387024,116.369675 
z"/>
<path fill="#FEFFFE" opacity="1.000000" stroke="none" 
	d="
M410.767151,113.134705 
	C410.863129,93.118027 428.447540,76.775642 446.210968,74.995079 
	C469.237518,72.686981 487.250824,88.334366 490.789368,107.102531 
	C494.084625,124.580307 488.089630,139.198730 473.328613,149.026260 
	C459.494110,158.236938 444.455139,158.637100 430.074707,149.911301 
	C416.666656,141.775482 410.153015,129.447220 410.767151,113.134705 
z"/>
<path fill="#FEFFFE" opacity="1.000000" stroke="none" 
	d="
M789.249329,155.534729 
	C763.871460,154.654938 744.473145,129.634003 752.422241,103.422646 
	C761.463257,73.610878 798.253967,64.734840 820.054504,86.973328 
	C832.091797,99.252281 835.028076,114.045563 828.868713,129.716568 
	C823.013977,144.612579 811.778503,153.865036 795.128906,155.209747 
	C793.306519,155.356918 791.483459,155.495987 789.249329,155.534729 
z"/>
<path fill="#FEFFFE" opacity="1.000000" stroke="none" 
	d="
M165.067841,155.066040 
	C145.028000,151.414032 131.425934,135.776749 130.923065,116.294670 
	C130.411530,96.476578 143.297165,79.970932 162.832657,75.420601 
	C184.382980,70.400955 207.741028,85.699669 211.149475,107.066444 
	C215.056015,131.555603 199.726227,152.840546 176.407883,155.113098 
	C172.805618,155.464172 169.134171,155.105118 165.067841,155.066040 
z"/>
<path fill="#FEFFFE" opacity="1.000000" stroke="none" 
	d="
M344.168884,139.100464 
	C326.386536,163.310928 288.678253,160.492325 274.916107,132.877670 
	C261.526642,106.010880 282.448273,73.441483 312.445679,74.687393 
	C328.661774,75.360916 340.694641,82.855331 347.788177,97.295738 
	C354.803131,111.576233 353.246674,125.617271 344.168884,139.100464 
z"/>
</svg>