<svg width="864" height="765" viewBox="0 0 864 765" fill="none" xmlns="http://www.w3.org/2000/svg">
<path opacity="0.1" d="M649.58 244.704C577.91 242.624 509.64 223.364 444.46 202.284C379.28 181.204 314.7 157.874 244.74 146.704C199.74 139.524 148.29 138.504 112.03 158.594C77.1496 177.914 65.8697 211.284 59.8097 242.234C55.2496 265.524 52.5696 290.044 65.0596 311.844C73.7396 326.984 89.1396 339.704 99.7896 354.204C136.86 404.664 110.66 466.874 70.4896 516.134C51.6496 539.244 29.7996 561.294 15.2596 585.894C0.719647 610.494 -5.99035 638.704 6.71965 663.774C19.3296 688.644 49.3696 707.324 81.9196 720.464C148.02 747.154 225.92 754.794 301.92 759.114C470.01 768.704 639.01 764.544 807.64 760.394C870.03 758.864 932.64 757.304 994.07 749.274C1028.15 744.814 1063.34 737.734 1088.07 720.644C1119.49 698.944 1127.27 662.214 1106.22 635.004C1070.92 589.374 973.3 578.004 948.62 529.074C935.04 502.124 948.99 472.074 968.73 447.074C1011.07 393.454 1082.05 346.404 1085.79 285.074C1088.36 242.974 1054.24 200.814 1001.48 180.894C946.18 160.014 869.48 162.644 828.69 197.204C786.69 232.844 712.87 246.534 649.58 244.704Z" fill="#EA0B3F"/>
<path d="M768.314 376.894C631.632 302.128 410.755 302.128 274.954 376.894C139.154 451.66 139.942 573.045 276.686 647.869C413.43 722.694 634.245 722.709 770.046 647.869C905.846 573.03 905.058 451.719 768.314 376.894Z" fill="#F5F5F5"/>
<path d="M578.651 570.831C546.911 553.444 495.6 553.444 464.061 570.831C432.523 588.218 432.693 616.394 464.432 633.766C496.172 651.139 547.483 651.153 579.037 633.766C610.591 616.38 610.406 588.218 578.651 570.831Z" fill="#E0E0E0"/>
<path d="M464.046 486.17L450.132 478.546L455.574 475.614C456.463 475.126 457.201 474.425 457.714 473.581C458.227 472.737 458.497 471.78 458.497 470.806C458.497 469.832 458.227 468.875 457.714 468.031C457.201 467.187 456.463 466.486 455.574 465.997L438.088 456.41C435.417 454.944 432.386 454.172 429.299 454.172C426.213 454.172 423.182 454.944 420.51 456.41L244.514 552.565C243.629 553.056 242.894 553.758 242.384 554.602C241.874 555.445 241.605 556.401 241.605 557.373C241.605 558.346 241.874 559.301 242.384 560.145C242.894 560.988 243.629 561.691 244.514 562.182L261.968 571.887C264.653 573.37 267.704 574.152 270.811 574.152C273.918 574.152 276.97 573.37 279.654 571.887L296.367 562.739L310.126 570.406C312.267 571.58 314.695 572.198 317.168 572.198C319.641 572.198 322.07 571.58 324.21 570.406L464.092 493.734C464.782 493.341 465.352 492.784 465.746 492.119C466.14 491.454 466.345 490.702 466.34 489.939C466.336 489.176 466.122 488.427 465.719 487.766C465.317 487.105 464.74 486.555 464.046 486.17Z" fill="#E0E0E0"/>
<path d="M560.3 348.028C575.157 356.165 575.234 369.344 560.47 377.48C545.705 385.617 521.696 385.617 506.824 377.48C491.951 369.344 491.889 356.165 506.653 348.028C521.418 339.892 545.427 339.892 560.3 348.028Z" fill="#E0E0E0"/>
<path d="M732.153 511.18L658.687 470.967C658.193 470.695 657.783 470.305 657.498 469.835C657.212 469.366 657.062 468.834 657.062 468.292C657.062 467.75 657.212 467.218 657.498 466.748C657.783 466.278 658.193 465.888 658.687 465.616L723.48 429.934C723.975 429.661 724.538 429.517 725.111 429.517C725.684 429.517 726.247 429.661 726.742 429.934L801.847 471.055C802.341 471.325 802.752 471.714 803.038 472.182C803.323 472.651 803.474 473.182 803.474 473.723C803.474 474.264 803.323 474.796 803.038 475.264C802.752 475.733 802.341 476.121 801.847 476.391L738.724 511.18C737.728 511.735 736.594 512.028 735.438 512.028C734.283 512.028 733.149 511.735 732.153 511.18Z" fill="#E0E0E0"/>
<path d="M536.986 250.686H530.137C530.137 278.54 531.204 370.326 531.204 370.326C531.229 370.521 531.306 370.707 531.428 370.866C531.55 371.025 531.712 371.152 531.9 371.235C532.413 371.488 532.983 371.62 533.562 371.62C534.14 371.62 534.71 371.488 535.224 371.235C535.415 371.157 535.581 371.031 535.703 370.871C535.825 370.711 535.9 370.523 535.919 370.326C535.919 370.326 536.986 278.54 536.986 250.686Z" fill="#E6E6E6"/>
<path d="M523.18 238.034H516.316C510.441 266.885 506.623 357.689 506.623 357.689C506.643 357.886 506.719 358.073 506.841 358.233C506.963 358.393 507.128 358.519 507.318 358.598C507.834 358.844 508.403 358.973 508.98 358.973C509.557 358.973 510.127 358.844 510.642 358.598C510.831 358.518 510.993 358.391 511.113 358.232C511.232 358.072 511.305 357.885 511.322 357.689C511.322 357.689 517.862 266.475 523.18 238.034Z" fill="#E6E6E6"/>
<path d="M543.943 238.034H550.776C556.651 266.885 560.47 357.689 560.47 357.689C560.449 357.886 560.374 358.073 560.252 358.233C560.129 358.393 559.965 358.519 559.774 358.598C559.259 358.844 558.689 358.973 558.112 358.973C557.535 358.973 556.966 358.844 556.45 358.598C556.264 358.516 556.103 358.388 555.983 358.229C555.864 358.07 555.791 357.884 555.77 357.689C555.77 357.689 549.292 266.475 543.943 238.034Z" fill="#E6E6E6"/>
<path d="M570.426 237.213H569.699C568.308 233.417 564.938 229.796 559.558 226.849C545.149 218.962 521.866 218.962 507.55 226.849C502.216 229.781 498.877 233.402 497.532 237.199H496.852V241.128C496.852 246.303 500.516 251.39 507.674 255.421C522.083 263.308 545.365 263.308 559.681 255.421C566.839 251.478 570.411 246.317 570.38 241.142L570.426 237.213Z" fill="#F0F0F0"/>
<path d="M559.48 222.935C573.905 230.822 573.982 243.605 559.65 251.507C545.319 259.409 522.052 259.394 507.643 251.507C493.234 243.62 493.157 230.822 507.473 222.935C521.789 215.048 545.072 215.033 559.48 222.935Z" fill="#F5F5F5"/>
<path d="M551.611 211.251H515.512C515.512 222.509 521.047 232.038 522.763 234.868C522.763 235 522.902 235.117 522.979 235.249L523.072 235.381C523.733 236.256 524.595 236.978 525.592 237.492C528.052 238.685 530.776 239.307 533.538 239.307C536.301 239.307 539.025 238.685 541.485 237.492C542.746 236.872 543.765 235.886 544.391 234.677C546.216 231.775 551.611 222.348 551.611 211.251Z" fill="#EBEBEB"/>
<path d="M546.277 204.243C553.358 208.113 553.389 214.403 546.37 218.273C539.351 222.143 527.911 222.143 520.846 218.273C513.781 214.403 513.734 208.113 520.753 204.243C527.772 200.373 539.212 200.373 546.277 204.243Z" fill="#F5F5F5"/>
<path d="M531.606 206.838C531.552 199.511 529.772 192.289 526.396 185.698C525.155 183.72 524.321 181.536 523.938 179.262C523.768 176.976 525.097 174.381 527.478 173.926C528.424 173.819 529.382 173.968 530.242 174.358C531.101 174.747 531.826 175.36 532.333 176.125C533.325 177.673 533.982 179.392 534.265 181.183C536.043 189.114 537.527 197.309 536.414 205.284C536.353 206.21 536.155 207.123 535.827 207.996C535.654 208.401 535.374 208.757 535.014 209.029C534.653 209.301 534.225 209.481 533.77 209.55C533.467 209.576 533.161 209.536 532.877 209.431C532.592 209.327 532.337 209.162 532.132 208.949C531.752 208.306 531.57 207.574 531.606 206.838Z" fill="#E0E0E0"/>
<path d="M533.585 207.483C533.546 207.481 533.508 207.472 533.474 207.456C533.439 207.441 533.407 207.418 533.382 207.391C533.356 207.364 533.336 207.332 533.323 207.298C533.31 207.263 533.304 207.226 533.307 207.19C534.214 196.918 532.369 186.595 527.942 177.181C527.91 177.111 527.909 177.032 527.938 176.96C527.967 176.889 528.024 176.832 528.097 176.8C528.132 176.785 528.17 176.777 528.209 176.777C528.248 176.776 528.286 176.783 528.322 176.797C528.358 176.81 528.391 176.831 528.418 176.856C528.446 176.882 528.468 176.912 528.483 176.946C532.953 186.448 534.82 196.866 533.91 207.234C533.898 207.306 533.858 207.372 533.798 207.418C533.738 207.464 533.662 207.487 533.585 207.483Z" fill="white"/>
<path d="M514.043 194.978C512.497 194.054 510.642 193.043 510.147 191.328C509.984 190.552 510.072 189.747 510.4 189.019C510.729 188.292 511.282 187.675 511.987 187.252C512.704 186.843 513.502 186.576 514.331 186.468C515.16 186.36 516.004 186.412 516.811 186.622C518.423 187.058 519.934 187.779 521.263 188.747C523.595 190.302 525.678 192.169 527.447 194.289C529.539 196.81 531.193 199.63 532.348 202.645C533.13 204.593 533.72 206.605 534.11 208.656C534.373 210.283 534.883 212.98 533.106 214.036C532.712 214.255 532.263 214.371 531.807 214.371C531.35 214.371 530.902 214.255 530.508 214.036C529.732 213.571 529.118 212.897 528.746 212.101C528.388 211.307 528.079 210.494 527.818 209.667C526.672 206.475 524.798 203.562 522.33 201.135C519.858 198.754 517.073 196.684 514.043 194.978Z" fill="#EBEBEB"/>
<path d="M532.255 212.013C532.161 212.031 532.063 212.013 531.983 211.964C531.902 211.915 531.845 211.838 531.822 211.749C530.684 206.905 528.425 202.362 525.208 198.448C521.992 194.533 517.899 191.345 513.224 189.114C513.138 189.073 513.072 189.002 513.042 188.915C513.012 188.828 513.019 188.734 513.062 188.652C513.105 188.571 513.18 188.509 513.272 188.48C513.363 188.451 513.463 188.457 513.549 188.498C518.331 190.78 522.519 194.043 525.808 198.049C529.097 202.055 531.405 206.705 532.564 211.661C532.569 211.746 532.54 211.829 532.483 211.894C532.425 211.96 532.344 212.002 532.255 212.013Z" fill="white"/>
<path d="M549.369 191.416C550.653 190.14 552.137 188.733 552.152 187.018C552.107 186.224 551.807 185.462 551.293 184.833C550.78 184.205 550.076 183.739 549.277 183.499C548.474 183.281 547.632 183.219 546.803 183.317C545.974 183.415 545.175 183.672 544.453 184.071C543.008 184.87 541.738 185.925 540.712 187.179C538.906 189.25 537.413 191.549 536.275 194.01C534.924 196.951 534.083 200.08 533.786 203.276C533.541 205.349 533.505 207.44 533.678 209.521C533.863 211.148 534.08 213.919 536.074 214.476C536.515 214.587 536.98 214.585 537.421 214.469C537.861 214.353 538.261 214.128 538.578 213.816C539.217 213.19 539.633 212.39 539.769 211.529C539.918 210.676 540.006 209.814 540.032 208.949C540.298 205.58 541.355 202.309 543.124 199.376C544.827 196.474 546.927 193.797 549.369 191.416Z" fill="#EBEBEB"/>
<path d="M536.306 212.335C536.353 212.336 536.4 212.326 536.444 212.308C536.487 212.29 536.526 212.264 536.558 212.231C536.59 212.198 536.614 212.159 536.629 212.116C536.645 212.073 536.65 212.028 536.646 211.984C536.458 207.02 537.433 202.078 539.502 197.515C541.572 192.952 544.683 188.881 548.612 185.596C548.677 185.53 548.714 185.444 548.714 185.354C548.714 185.264 548.677 185.177 548.612 185.112C548.541 185.053 548.451 185.021 548.357 185.021C548.263 185.021 548.172 185.053 548.102 185.112C544.083 188.467 540.902 192.628 538.789 197.294C536.677 201.96 535.686 207.012 535.888 212.086C535.897 212.129 535.916 212.17 535.942 212.206C535.968 212.242 536.002 212.273 536.041 212.296C536.08 212.319 536.123 212.335 536.169 212.342C536.215 212.348 536.261 212.346 536.306 212.335Z" fill="white"/>
<path d="M671.905 464.194L665.49 467.727L665.505 460.69L671.905 464.194Z" fill="#E6E6E6"/>
<path d="M665.768 392.272L728.288 426.518L665.768 392.272Z" fill="#CFCFCF"/>
<path d="M671.905 464.194L728.149 494.98V502.032L734.828 505.697L735.075 422.853L659.058 381.233L658.811 464.062L665.505 467.727V460.69L671.905 464.194ZM728.211 453.375L665.691 419.144L665.768 392.272L728.288 426.518L728.211 453.375ZM728.118 487.592L665.598 453.36L665.66 426.606V426.533L728.195 460.764L728.118 487.592Z" fill="#EBEBEB"/>
<path d="M665.582 453.36L665.66 426.577V426.503L728.195 460.734L728.103 487.592L665.582 453.36Z" fill="#F5F5F5"/>
<path d="M665.691 419.144L665.768 392.272L728.288 426.518L728.211 453.375L665.691 419.144Z" fill="#F5F5F5"/>
<path d="M735.075 422.853L801.445 386.276L801.197 469.12L734.812 505.697L735.075 422.853Z" fill="#E6E6E6"/>
<path d="M735.075 422.853L659.043 381.233L725.412 344.657L801.445 386.276L735.075 422.853Z" fill="#F5F5F5"/>
<path d="M748 374.842C737.27 368.978 719.924 368.978 709.257 374.842C698.589 380.706 698.651 390.249 709.38 396.113C720.11 401.977 737.471 401.977 748.123 396.113C758.775 390.249 758.729 380.72 748 374.842Z" fill="#E0E0E0"/>
<path d="M751.061 350.477L729.417 351.078L707.773 350.477C706.83 364.316 709.69 378.433 713.617 385.323C714.542 387.096 716.043 388.54 717.899 389.443C721.462 391.17 725.407 392.07 729.409 392.07C733.411 392.07 737.355 391.17 740.919 389.443C742.803 388.52 744.309 387.03 745.201 385.206C749.174 378.228 751.988 364.257 751.061 350.477Z" fill="#37474F"/>
<path d="M744.676 342.091C753.148 346.724 753.194 354.244 744.784 358.877C736.374 363.509 722.676 363.509 714.204 358.877C705.732 354.244 705.701 346.724 714.111 342.091C722.521 337.459 736.219 337.444 744.676 342.091Z" fill="#455A64"/>
<path d="M741.336 343.924C747.938 347.545 747.969 353.409 741.414 357.03C737.719 358.814 733.632 359.744 729.486 359.744C725.34 359.744 721.253 358.814 717.559 357.03C710.957 353.409 710.911 347.545 717.481 343.924C721.178 342.145 725.264 341.218 729.409 341.218C733.554 341.218 737.64 342.145 741.336 343.924Z" fill="#263238"/>
<path d="M727.639 351.063C729.373 352.438 731.426 353.402 733.63 353.877C735.835 354.351 738.126 354.321 740.316 353.79C742.428 353.183 744.347 352.087 745.899 350.599C747.451 349.112 748.588 347.281 749.205 345.272C746.648 344.117 744.304 342.578 742.264 340.713C745.508 339.941 748.916 340.052 752.097 341.036C752.976 339.725 753.503 338.23 753.632 336.681C753.762 335.132 753.489 333.577 752.839 332.152C749.15 330.592 744.998 330.322 741.12 331.389C742.728 330.054 744.611 329.049 746.649 328.438C748.687 327.828 750.837 327.624 752.962 327.842C753.267 321.961 752.299 316.084 750.118 310.572C742.063 310.983 734.24 314.266 731.566 316.641C731.442 319.376 731.744 322.112 732.462 324.763C731.42 324.26 730.528 323.515 729.871 322.597C729.215 321.68 728.813 320.619 728.706 319.515C723.666 320.702 721.517 323.092 720.728 324.91C721.453 328.31 723.1 331.473 725.505 334.087C720.759 332.723 718.842 327.724 718.842 327.724C714.204 338.192 715.116 350.037 727.639 351.063Z" fill="#00B8A9"/>
<path opacity="0.2" d="M727.639 351.063C729.373 352.438 731.426 353.402 733.63 353.877C735.835 354.351 738.126 354.321 740.316 353.79C742.428 353.183 744.347 352.087 745.899 350.599C747.451 349.112 748.588 347.281 749.205 345.272C746.648 344.117 744.304 342.578 742.264 340.713C745.508 339.941 748.916 340.052 752.097 341.036C752.976 339.725 753.503 338.23 753.632 336.681C753.762 335.132 753.489 333.577 752.839 332.152C749.15 330.592 744.998 330.322 741.12 331.389C742.728 330.054 744.611 329.049 746.649 328.438C748.687 327.828 750.837 327.624 752.962 327.842C753.267 321.961 752.299 316.084 750.118 310.572C742.063 310.983 734.24 314.266 731.566 316.641C731.442 319.376 731.744 322.112 732.462 324.763C731.42 324.26 730.528 323.515 729.871 322.597C729.215 321.68 728.813 320.619 728.706 319.515C723.666 320.702 721.517 323.092 720.728 324.91C721.453 328.31 723.1 331.473 725.505 334.087C720.759 332.723 718.842 327.724 718.842 327.724C714.204 338.192 715.116 350.037 727.639 351.063Z" fill="black"/>
<path d="M727.36 352.192C727.3 352.188 727.24 352.173 727.185 352.147C727.13 352.122 727.081 352.086 727.041 352.043C727.001 351.999 726.97 351.948 726.951 351.893C726.931 351.839 726.923 351.781 726.928 351.723C727.701 342.062 733.514 326.141 747.397 312.991C747.485 312.907 747.604 312.86 747.729 312.86C747.854 312.86 747.973 312.907 748.061 312.991C748.15 313.075 748.199 313.188 748.199 313.306C748.199 313.424 748.15 313.538 748.061 313.621C734.364 326.595 728.613 342.282 727.855 351.737C727.857 351.799 727.846 351.86 727.822 351.917C727.798 351.974 727.761 352.026 727.714 352.069C727.668 352.112 727.612 352.145 727.551 352.166C727.49 352.187 727.425 352.196 727.36 352.192Z" fill="#F5F5F5"/>
<path d="M731.21 356.238C729.595 357.49 727.69 358.362 725.651 358.782C723.613 359.202 721.498 359.159 719.481 358.656C717.463 358.152 715.6 357.203 714.043 355.886C712.487 354.569 711.281 352.921 710.524 351.078C712.837 350.073 714.954 348.705 716.786 347.032C713.723 346.343 710.523 346.434 707.51 347.295C706.6 346.19 706.002 344.883 705.775 343.497C705.548 342.112 705.698 340.694 706.211 339.379C709.725 338.01 713.619 337.788 717.28 338.749C714.02 336.333 709.915 335.181 705.794 335.523C705.092 330.342 705.621 325.078 707.34 320.116C715.07 320.556 722.614 323.576 725.258 325.701C725.554 328.106 725.449 330.54 724.949 332.914C725.879 332.497 726.67 331.843 727.232 331.025C727.794 330.207 728.106 329.257 728.133 328.281C732.942 329.381 735.121 331.521 735.972 333.134C735.514 336.126 734.168 338.932 732.091 341.226C733.442 340.772 734.667 340.033 735.673 339.066C736.68 338.098 737.443 336.927 737.904 335.641C742.867 344.891 742.79 355.329 731.21 356.238Z" fill="#00B8A9"/>
<path d="M731.473 357.279C731.363 357.276 731.257 357.237 731.175 357.167C731.092 357.097 731.039 357.001 731.024 356.898C729.695 348.498 723.294 334.541 709.458 322.887C709.373 322.804 709.325 322.694 709.325 322.579C709.325 322.464 709.373 322.353 709.458 322.271C709.5 322.229 709.55 322.196 709.606 322.173C709.662 322.151 709.722 322.139 709.782 322.139C709.843 322.139 709.903 322.151 709.959 322.173C710.015 322.196 710.065 322.229 710.107 322.271C724.098 334.087 730.623 348.263 731.968 356.81C731.986 356.926 731.955 357.045 731.883 357.14C731.811 357.236 731.703 357.301 731.581 357.323L731.473 357.279Z" fill="white"/>
<path d="M439.016 72.3763C437.81 68.3595 429.214 60.6483 420.665 60.8829C419.84 60.9067 419.025 61.0602 418.253 61.3373L252.12 150.998C249.696 152.333 247.68 154.244 246.271 156.542C244.861 158.84 244.107 161.446 244.081 164.104V504.978C244.081 513.657 254.64 521.94 264.565 517.952C264.783 517.889 264.995 517.811 265.199 517.718L431.41 427.911C433.849 426.593 435.876 424.686 437.285 422.384C438.695 420.081 439.436 417.466 439.433 414.805V74.0182C439.435 73.4472 439.291 72.8842 439.016 72.3763Z" fill="#455A64"/>
<path d="M267.271 200.109C267.272 198.78 267.644 197.474 268.35 196.325C269.056 195.177 270.071 194.226 271.29 193.571L425.597 110.316C426.201 109.987 426.886 109.815 427.583 109.816C428.28 109.817 428.964 109.992 429.567 110.323C430.17 110.655 430.671 111.13 431.018 111.703C431.366 112.276 431.549 112.925 431.549 113.586V388.49C431.545 389.819 431.171 391.123 430.465 392.271C429.76 393.419 428.747 394.37 427.529 395.028L273.208 478.4C272.604 478.725 271.92 478.895 271.226 478.892C270.531 478.889 269.849 478.713 269.249 478.382C268.648 478.052 268.149 477.577 267.802 477.007C267.455 476.436 267.272 475.789 267.271 475.131V200.109Z" fill="#EA0B3F"/>
<path opacity="0.2" d="M267.271 200.109C267.272 198.78 267.644 197.474 268.35 196.325C269.056 195.177 270.071 194.226 271.29 193.571L425.597 110.316C426.201 109.987 426.886 109.815 427.583 109.816C428.28 109.817 428.964 109.992 429.567 110.323C430.17 110.655 430.671 111.13 431.018 111.703C431.366 112.276 431.549 112.925 431.549 113.586V388.49C431.545 389.819 431.171 391.123 430.465 392.271C429.76 393.419 428.747 394.37 427.529 395.028L273.208 478.4C272.604 478.725 271.92 478.895 271.226 478.892C270.531 478.889 269.849 478.713 269.249 478.382C268.648 478.052 268.149 477.577 267.802 477.007C267.455 476.436 267.272 475.789 267.271 475.131V200.109Z" fill="black"/>
<path opacity="0.3" d="M244.081 164.089V504.978C244.081 513.657 254.64 521.94 264.565 517.952C263.969 518.161 263.328 518.229 262.697 518.151C262.067 518.073 261.466 517.852 260.945 517.507C260.424 517.161 259.999 516.701 259.706 516.166C259.413 515.631 259.261 515.037 259.263 514.434V173.501C259.27 170.536 260.2 167.64 261.937 165.174L245.766 157.478C244.676 159.529 244.099 161.792 244.081 164.089Z" fill="black"/>
<path opacity="0.1" d="M420.727 60.8683C419.902 60.8921 419.087 61.0457 418.315 61.3228L252.12 150.998C249.361 152.501 247.146 154.759 245.766 157.478L262.03 165.174C263.407 163.21 265.249 161.578 267.41 160.41L433.605 70.7492C434.07 70.5077 434.583 70.3581 435.111 70.3095C435.639 70.2608 436.172 70.3142 436.677 70.4662C437.183 70.6183 437.651 70.866 438.053 71.1943C438.455 71.5226 438.782 71.9247 439.016 72.3764C437.872 68.3449 429.276 60.7071 420.727 60.8683Z" fill="white"/>
<path d="M369.894 127.029C371.054 126.399 372.028 126.897 372.028 128.158C371.987 128.856 371.774 129.535 371.406 130.141C371.039 130.747 370.526 131.263 369.91 131.647L337.289 149.532C336.13 150.177 335.187 149.635 335.187 148.359C335.227 147.669 335.438 146.997 335.803 146.398C336.169 145.8 336.678 145.291 337.289 144.914L369.894 127.029Z" fill="#263238"/>
<path d="M328.91 149.532C330.069 148.887 331.012 149.4 331.028 150.676C330.985 151.37 330.773 152.045 330.408 152.648C330.043 153.251 329.536 153.765 328.925 154.15C327.75 154.78 326.792 154.267 326.792 152.992C326.831 152.297 327.044 151.622 327.412 151.02C327.78 150.419 328.294 149.909 328.91 149.532Z" fill="#263238"/>
<path d="M349.781 124.434C352.115 123.159 354.001 124.17 354.001 126.721C353.93 128.108 353.513 129.46 352.785 130.665C352.057 131.871 351.038 132.895 349.812 133.655C347.477 134.945 345.545 133.89 345.529 131.354C345.616 129.965 346.046 128.615 346.785 127.413C347.523 126.211 348.55 125.19 349.781 124.434Z" fill="#263238"/>
<path d="M349.796 445.356C354.543 442.761 358.377 444.828 358.392 450.003C358.242 452.833 357.389 455.589 355.903 458.047C354.418 460.506 352.341 462.597 349.843 464.15C345.097 466.745 341.17 464.619 341.154 459.444C341.325 456.617 342.196 453.868 343.698 451.42C345.199 448.972 347.289 446.894 349.796 445.356Z" fill="#263238"/>
<path d="M469.488 130.855C468.39 127.205 460.66 120.212 452.837 120.417C452.093 120.439 451.357 120.573 450.657 120.813L299.876 202.205C297.676 203.416 295.847 205.149 294.567 207.234C293.288 209.318 292.603 211.683 292.579 214.095V523.523C292.579 531.41 302.164 538.931 311.131 535.251C311.334 535.197 311.531 535.124 311.718 535.031L462.577 453.507C464.79 452.311 466.629 450.581 467.908 448.493C469.187 446.405 469.86 444.033 469.859 441.618V132.292C469.851 131.793 469.724 131.301 469.488 130.855Z" fill="#EA0B3F"/>
<path opacity="0.2" d="M292.502 214.036V523.523C292.502 531.41 302.087 538.931 311.054 535.251C310.512 535.437 309.931 535.497 309.36 535.425C308.789 535.353 308.245 535.152 307.773 534.838C307.302 534.525 306.917 534.108 306.651 533.624C306.385 533.14 306.246 532.602 306.246 532.055V222.656C306.252 219.963 307.096 217.331 308.673 215.092L294.001 208.172C293.047 209.996 292.535 212 292.502 214.036Z" fill="white"/>
<path opacity="0.4" d="M452.837 120.417C452.093 120.439 451.357 120.573 450.657 120.813L299.876 202.205C297.364 203.56 295.342 205.605 294.079 208.069L308.843 215.062C310.082 213.256 311.75 211.75 313.713 210.664L464.556 129.287C464.983 129.055 465.455 128.909 465.943 128.858C466.432 128.806 466.926 128.851 467.396 128.988C467.866 129.126 468.301 129.353 468.674 129.657C469.047 129.96 469.35 130.333 469.565 130.753C468.39 127.205 460.66 120.212 452.837 120.417Z" fill="white"/>
<path opacity="0.3" d="M469.488 130.855C468.39 127.205 460.66 120.212 452.837 120.417C452.093 120.439 451.357 120.573 450.657 120.813L299.876 202.205C297.676 203.416 295.847 205.149 294.567 207.234C293.288 209.318 292.603 211.683 292.579 214.095V523.523C292.579 531.41 302.164 538.931 311.131 535.251C311.334 535.197 311.531 535.124 311.718 535.031L462.577 453.507C464.79 452.311 466.629 450.581 467.908 448.493C469.187 446.405 469.86 444.033 469.859 441.618V132.292C469.851 131.793 469.724 131.301 469.488 130.855Z" fill="white"/>
<path d="M416.97 166.186C418.408 165.394 419.583 166.025 419.598 167.652V182.722C419.548 183.582 419.285 184.419 418.832 185.165C418.378 185.911 417.745 186.546 416.986 187.018L318.784 240.717C317.33 241.509 316.171 240.878 316.155 239.251V224.166C316.204 223.306 316.466 222.469 316.92 221.722C317.374 220.976 318.007 220.342 318.768 219.871L416.97 166.186Z" fill="#EA0B3F"/>
<g opacity="0.7">
<path d="M416.97 166.186C418.408 165.394 419.583 166.025 419.598 167.652V182.722C419.548 183.582 419.285 184.419 418.832 185.165C418.378 185.911 417.745 186.546 416.986 187.018L318.784 240.717C317.33 241.509 316.171 240.878 316.155 239.251V224.166C316.204 223.306 316.466 222.469 316.92 221.722C317.374 220.976 318.007 220.342 318.768 219.871L416.97 166.186Z" fill="white"/>
</g>
<g opacity="0.5">
<path d="M456.099 150.206C459.47 148.359 462.206 149.84 462.283 153.505C462.25 154.962 461.909 156.398 461.278 157.727L462.299 160.146L459.686 160.38C458.769 161.641 457.578 162.701 456.192 163.488C452.837 165.335 450.101 163.855 450.085 160.19C450.186 158.194 450.784 156.249 451.829 154.514C452.874 152.779 454.337 151.303 456.099 150.206Z" fill="white"/>
</g>
<g opacity="0.5">
<path d="M433.806 172.871C434.579 172.46 435.213 172.783 435.213 173.633C435.186 174.091 435.046 174.536 434.804 174.933C434.562 175.331 434.226 175.669 433.821 175.92C433.048 176.33 432.43 175.92 432.43 175.158C432.455 174.701 432.593 174.257 432.832 173.86C433.071 173.462 433.405 173.124 433.806 172.871Z" fill="white"/>
<path d="M440.763 169.074C441.536 168.649 442.154 168.986 442.17 169.821C442.141 170.281 441.999 170.727 441.754 171.124C441.51 171.521 441.17 171.859 440.763 172.108C440.005 172.534 439.372 172.196 439.372 171.346C439.401 170.891 439.542 170.448 439.784 170.054C440.025 169.659 440.361 169.324 440.763 169.074Z" fill="white"/>
<path d="M443.669 157.243L442.634 167.432L431.951 173.281L430.838 164.28L443.669 157.243Z" fill="white"/>
</g>
<path d="M316.789 362.102C316.791 360.933 317.118 359.785 317.737 358.773C318.356 357.762 319.245 356.923 320.314 356.341L456.022 283.055C456.558 282.765 457.165 282.615 457.781 282.62C458.398 282.624 459.002 282.784 459.533 283.081C460.064 283.379 460.502 283.805 460.803 284.315C461.104 284.826 461.258 285.403 461.247 285.987V348.072C461.242 349.243 460.912 350.391 460.291 351.403C459.67 352.414 458.778 353.252 457.707 353.834L321.968 427.134C321.433 427.424 320.826 427.574 320.209 427.569C319.592 427.565 318.988 427.406 318.457 427.108C317.926 426.81 317.488 426.384 317.187 425.874C316.886 425.363 316.733 424.786 316.743 424.202L316.789 362.102Z" fill="#EA0B3F"/>
<path opacity="0.5" d="M316.789 362.102C316.791 360.933 317.118 359.785 317.737 358.773C318.356 357.762 319.245 356.923 320.314 356.341L456.022 283.055C456.558 282.765 457.165 282.615 457.781 282.62C458.398 282.624 459.002 282.784 459.533 283.081C460.064 283.379 460.502 283.805 460.803 284.315C461.104 284.826 461.258 285.403 461.247 285.987V348.072C461.242 349.243 460.912 350.391 460.291 351.403C459.67 352.414 458.778 353.252 457.707 353.834L321.968 427.134C321.433 427.424 320.826 427.574 320.209 427.569C319.592 427.565 318.988 427.406 318.457 427.108C317.926 426.81 317.488 426.384 317.187 425.874C316.886 425.363 316.733 424.786 316.743 424.202L316.789 362.102Z" fill="white"/>
<path d="M375.831 334.292L376.001 391.437L323.561 420.141L323.391 363.011L375.831 334.292Z" fill="#EA0B3F"/>
<g opacity="0.2">
<path d="M375.831 334.292L376.001 391.437L323.561 420.141L323.391 363.011L375.831 334.292Z" fill="white"/>
</g>
<g opacity="0.6">
<path d="M410.307 339.144L410.322 342.765L381.86 358.305L381.845 354.684L410.307 339.144Z" fill="white"/>
<path d="M445.2 313.973L445.215 317.58L381.845 352.28L381.829 348.659L445.2 313.973Z" fill="white"/>
<path d="M421.237 363.099L421.252 366.72L381.86 388.153L381.845 384.546L421.237 363.099Z" fill="white"/>
<path d="M430.992 351.43L431.008 355.036L381.845 382.128L381.829 378.507L430.992 351.43Z" fill="white"/>
<path d="M445.185 307.933L445.2 311.54L381.814 346.24V342.634L445.185 307.933Z" fill="white"/>
<path d="M415.888 313.812L415.903 319.016L381.799 337.693L381.783 332.504L415.888 313.812Z" fill="white"/>
</g>
<path d="M350.894 365.84C356.661 362.688 361.345 365.239 361.376 371.514C361.184 374.937 360.142 378.268 358.334 381.236C356.525 384.205 354.003 386.725 350.971 388.593C345.205 391.759 340.505 389.223 340.489 382.949C340.681 379.522 341.723 376.186 343.531 373.213C345.339 370.24 347.862 367.714 350.894 365.84Z" fill="#E0E0E0"/>
<path d="M343.164 356.077L358.624 347.647V360.548C355.921 360.191 353.173 360.78 350.894 362.205C347.857 363.939 345.227 366.244 343.164 368.978V356.077Z" fill="#E0E0E0"/>
<path d="M316.789 279.581C316.791 278.412 317.118 277.263 317.737 276.252C318.356 275.241 319.245 274.402 320.314 273.82L456.022 200.593C456.558 200.303 457.165 200.153 457.781 200.157C458.398 200.162 459.002 200.321 459.533 200.619C460.064 200.917 460.502 201.342 460.803 201.853C461.104 202.363 461.258 202.94 461.247 203.525V265.61C461.242 266.78 460.912 267.929 460.291 268.94C459.67 269.952 458.778 270.79 457.707 271.371L321.968 344.671C321.433 344.961 320.826 345.111 320.209 345.107C319.592 345.102 318.988 344.943 318.457 344.645C317.926 344.347 317.488 343.922 317.187 343.411C316.886 342.901 316.733 342.324 316.743 341.739L316.789 279.581Z" fill="#EA0B3F"/>
<path opacity="0.1" d="M316.789 279.581C316.791 278.412 317.118 277.263 317.737 276.252C318.356 275.241 319.245 274.402 320.314 273.82L456.022 200.593C456.558 200.303 457.165 200.153 457.781 200.157C458.398 200.162 459.002 200.321 459.533 200.619C460.064 200.917 460.502 201.342 460.803 201.853C461.104 202.363 461.258 202.94 461.247 203.525V265.61C461.242 266.78 460.912 267.929 460.291 268.94C459.67 269.952 458.778 270.79 457.707 271.371L321.968 344.671C321.433 344.961 320.826 345.111 320.209 345.107C319.592 345.102 318.988 344.943 318.457 344.645C317.926 344.347 317.488 343.922 317.187 343.411C316.886 342.901 316.733 342.324 316.743 341.739L316.789 279.581Z" fill="black"/>
<path d="M316.789 442.615C316.787 441.445 317.111 440.295 317.731 439.282C318.35 438.27 319.241 437.432 320.314 436.853L456.022 363.568C456.558 363.278 457.165 363.128 457.781 363.132C458.398 363.137 459.002 363.296 459.533 363.594C460.064 363.892 460.502 364.318 460.803 364.828C461.104 365.338 461.258 365.915 461.247 366.5V428.57C461.245 429.742 460.917 430.891 460.295 431.903C459.673 432.915 458.781 433.753 457.707 434.332L321.968 507.632C321.433 507.922 320.826 508.072 320.209 508.067C319.592 508.063 318.988 507.904 318.457 507.606C317.926 507.308 317.488 506.882 317.187 506.372C316.886 505.861 316.733 505.285 316.743 504.7L316.789 442.615Z" fill="#EA0B3F"/>
<path opacity="0.5" d="M316.789 442.615C316.787 441.445 317.111 440.295 317.731 439.282C318.35 438.27 319.241 437.432 320.314 436.853L456.022 363.568C456.558 363.278 457.165 363.128 457.781 363.132C458.398 363.137 459.002 363.296 459.533 363.594C460.064 363.892 460.502 364.318 460.803 364.828C461.104 365.338 461.258 365.915 461.247 366.5V428.57C461.245 429.742 460.917 430.891 460.295 431.903C459.673 432.915 458.781 433.753 457.707 434.332L321.968 507.632C321.433 507.922 320.826 508.072 320.209 508.067C319.592 508.063 318.988 507.904 318.457 507.606C317.926 507.308 317.488 506.882 317.187 506.372C316.886 505.861 316.733 505.285 316.743 504.7L316.789 442.615Z" fill="white"/>
<path d="M375.831 414.863L376.001 472.008L323.561 500.712L323.391 443.568L375.831 414.863Z" fill="#EA0B3F"/>
<g opacity="0.2">
<path d="M375.831 414.863L376.001 472.008L323.561 500.712L323.391 443.568L375.831 414.863Z" fill="white"/>
</g>
<g opacity="0.6">
<path d="M410.307 419.716L410.322 423.322L381.86 438.862L381.845 435.255L410.307 419.716Z" fill="white"/>
<path d="M445.2 394.53L445.215 398.136L381.845 432.836L381.829 429.23L445.2 394.53Z" fill="white"/>
<path d="M421.237 443.67L421.252 447.277L381.86 468.724L381.845 465.103L421.237 443.67Z" fill="white"/>
<path d="M430.992 432.001L431.008 435.607L381.845 462.684L381.829 459.078L430.992 432.001Z" fill="white"/>
<path d="M445.185 388.49L445.2 392.111L381.814 426.797V423.19L445.185 388.49Z" fill="white"/>
<path d="M415.888 394.383L415.903 399.588L381.799 418.264L381.783 413.06L415.888 394.383Z" fill="white"/>
</g>
<path d="M367.003 440.973C368.132 440.357 368.998 440.973 368.828 442.292L365.844 465.558C365.676 466.655 365.263 467.706 364.634 468.642C364.005 469.577 363.174 470.374 362.195 470.982L338.526 483.941C336.702 484.938 335.156 484.337 334.877 482.475L331.785 462.552C331.756 461.898 331.908 461.249 332.225 460.668C332.542 460.086 333.014 459.594 333.594 459.239L340.675 455.369V460.045L342.53 459.049V454.46L358.114 445.928V450.619L359.969 449.593V444.902L367.003 440.973Z" fill="#E0E0E0"/>
<path d="M350.245 437.337C355.547 434.405 359.892 436.765 359.907 442.556V449.534L358.052 450.56V443.568C358.052 438.891 354.543 436.985 350.322 439.346C348.067 440.746 346.192 442.63 344.849 444.846C343.506 447.062 342.732 449.547 342.592 452.1V459.093L340.737 460.089V453.111C340.9 449.958 341.847 446.886 343.499 444.145C345.151 441.404 347.462 439.071 350.245 437.337Z" fill="white"/>
<path d="M328.863 289.828C328.863 288.497 329.235 287.189 329.941 286.037C330.647 284.886 331.662 283.933 332.883 283.275L487.205 200.021C487.81 199.695 488.495 199.525 489.19 199.529C489.886 199.533 490.569 199.71 491.17 200.042C491.771 200.375 492.27 200.851 492.616 201.424C492.962 201.996 493.143 202.645 493.141 203.305V273.878C493.138 275.207 492.764 276.511 492.058 277.659C491.352 278.807 490.339 279.759 489.122 280.416L334.816 363.803C334.211 364.132 333.526 364.304 332.829 364.303C332.133 364.302 331.448 364.127 330.845 363.796C330.242 363.464 329.742 362.989 329.394 362.416C329.046 361.843 328.863 361.194 328.863 360.533V289.828Z" fill="#EA0B3F"/>
<path opacity="0.6" d="M328.863 289.828C328.863 288.497 329.235 287.189 329.941 286.037C330.647 284.886 331.662 283.933 332.883 283.275L487.205 200.021C487.81 199.695 488.495 199.525 489.19 199.529C489.886 199.533 490.569 199.71 491.17 200.042C491.771 200.375 492.27 200.851 492.616 201.424C492.962 201.996 493.143 202.645 493.141 203.305V273.878C493.138 275.207 492.764 276.511 492.058 277.659C491.352 278.807 490.339 279.759 489.122 280.416L334.816 363.803C334.211 364.132 333.526 364.304 332.829 364.303C332.133 364.302 331.448 364.127 330.845 363.796C330.242 363.464 329.742 362.989 329.394 362.416C329.046 361.843 328.863 361.194 328.863 360.533V289.828Z" fill="white"/>
<path d="M395.991 258.295L396.176 323.238L336.578 355.872L336.377 290.928L395.991 258.295Z" fill="#EA0B3F"/>
<g opacity="0.2">
<path d="M395.991 258.295L396.176 323.238L336.578 355.872L336.377 290.928L395.991 258.295Z" fill="white"/>
</g>
<path d="M384.458 278.54V291.353C384.388 292.561 384.019 293.736 383.379 294.784C382.74 295.831 381.849 296.72 380.778 297.378C378.753 298.492 377.099 297.598 377.083 295.384V282.923L384.458 278.54Z" fill="#E0E0E0"/>
<path d="M390.982 301.014C390.703 304.582 390.088 308.12 389.142 311.584L378.877 317.213C379.17 314.428 379.449 311.628 379.727 308.842C376.012 313.692 371.875 318.238 367.359 322.432C365.592 324.073 363.619 325.501 361.484 326.683L342.36 337.18C341.93 336.836 341.659 336.347 341.603 335.817L360.881 325.276C362.772 324.221 364.534 322.972 366.138 321.552C371.447 316.99 376.321 311.991 380.701 306.614L390.982 301.014Z" fill="#E0E0E0"/>
<path d="M387.318 276.957C387.534 279.097 387.952 287.028 388.462 288.831C388.972 290.635 389.621 292.408 390.302 294.212C390.982 296.417 391.213 298.726 390.982 301.014L380.701 306.643C376.321 312.02 371.447 317.019 366.138 321.582C364.534 323.002 362.772 324.25 360.881 325.305L341.618 335.846C341.411 333.723 341.92 331.593 343.071 329.762C344.622 327.594 346.533 325.678 348.73 324.089C351.454 321.823 354.001 319.373 356.351 316.759C362.891 309.619 370.435 299.518 372.94 285.386C374.146 284.712 375.584 283.92 377.114 282.967V295.428C377.114 297.642 378.784 298.536 380.809 297.422C381.879 296.764 382.771 295.874 383.41 294.827C384.049 293.78 384.419 292.605 384.489 291.397V278.584C385.493 277.998 386.452 277.426 387.318 276.957Z" fill="white"/>
<g opacity="0.6">
<path d="M435.182 263.792L435.197 267.912L402.84 285.577L402.824 281.472L435.182 263.792Z" fill="white"/>
<path d="M474.852 235.176L474.868 239.281L402.824 278.716L402.809 274.611L474.852 235.176Z" fill="white"/>
<path d="M447.612 291.03V295.135L402.84 319.5L402.824 315.395L447.612 291.03Z" fill="white"/>
<path d="M458.697 277.763L458.712 281.868L402.824 312.654L402.809 308.549L458.697 277.763Z" fill="white"/>
<path d="M474.837 228.315V232.42L402.793 271.855V267.75L474.837 228.315Z" fill="white"/>
<path d="M441.536 235L441.551 240.922L402.778 262.15L402.747 256.242L441.536 235Z" fill="white"/>
</g>
<g opacity="0.8">
<path d="M339.979 239.559L335.728 256.33L331.724 258.529L329.157 251.14L326.544 261.358L322.525 263.557L318.181 251.492L322.03 249.381L324.736 257.122L327.503 246.391L330.951 244.499L333.641 252.343L336.408 241.524L339.979 239.559Z" fill="white"/>
<path d="M345.081 236.759L345.127 251.184L341.371 253.237L341.324 238.826L345.081 236.759Z" fill="white"/>
<path d="M352.919 232.185C354.349 231.309 356.01 230.831 357.712 230.807L356.583 234.472C355.292 234.428 354.014 234.738 352.904 235.366C351.358 236.231 350.77 237.111 350.77 237.829C350.77 240.043 358.284 234.281 358.299 239.603C358.299 242.11 356.382 245.32 352.455 247.475C350.812 248.537 348.844 249.053 346.859 248.941L348.08 245.276C349.612 245.424 351.151 245.083 352.455 244.309C354.001 243.444 354.604 242.638 354.604 241.949C354.604 239.662 347.075 245.452 347.06 240.072C347.06 237.492 348.977 234.34 352.919 232.185Z" fill="white"/>
<path d="M372.6 221.703L372.631 236.114L368.889 238.181L368.874 232.552L363.772 235.352L363.788 240.966L360.046 243.019L360 228.593L363.757 226.541L363.772 231.965L368.859 229.165L368.843 223.756L372.6 221.703Z" fill="white"/>
<path d="M379 218.199L379.031 229.385L385.354 225.925V229.15L375.29 234.663L375.243 220.252L379 218.199Z" fill="white"/>
<path d="M390.564 211.866L390.595 226.292L386.854 228.344L386.808 213.919L390.564 211.866Z" fill="white"/>
<path d="M398.372 207.292C399.81 206.41 401.482 205.932 403.195 205.914L402.051 209.565C400.76 209.539 399.486 209.853 398.372 210.474C396.826 211.324 396.254 212.203 396.254 212.936C396.254 215.15 403.767 209.389 403.783 214.71C403.783 217.217 401.866 220.413 397.923 222.568C396.282 223.635 394.313 224.151 392.327 224.034L393.548 220.369C395.086 220.518 396.633 220.172 397.939 219.387C399.485 218.551 400.088 217.73 400.088 217.041C400.088 214.74 392.543 220.545 392.528 215.179C392.528 212.57 394.445 209.447 398.372 207.292Z" fill="white"/>
<path d="M415.903 197.998V201.223L411.853 203.452L411.884 214.637L408.142 216.675L408.111 205.489L404.045 207.718L404.03 204.492L415.903 197.998Z" fill="white"/>
<path d="M463.056 174.263L463.072 180.186L424.298 201.414L424.283 195.506L463.056 174.263Z" fill="white"/>
<path d="M452.93 187.839L452.945 193.747L424.298 209.433L424.283 203.525L452.93 187.839Z" fill="white"/>
</g>
<path d="M343.319 393.914C346.022 394.262 348.766 393.674 351.049 392.258C354.081 390.517 356.71 388.214 358.779 385.485V398.371L343.319 406.8V393.914Z" fill="#E0E0E0"/>
<path d="M358.624 360.548C362.303 361.222 364.808 364.477 364.808 369.681C364.553 375.44 362.432 380.984 358.732 385.558C356.663 388.287 354.034 390.591 351.002 392.331C348.72 393.747 345.975 394.336 343.272 393.988C339.593 393.284 337.166 390.044 337.088 384.854C337.354 379.122 339.47 373.606 343.149 369.051C345.211 366.317 347.842 364.012 350.879 362.278C353.151 360.824 355.906 360.208 358.624 360.548ZM351.002 388.593C354.034 386.725 356.556 384.205 358.365 381.236C360.173 378.268 361.215 374.937 361.407 371.514C361.407 365.239 356.769 362.718 350.925 365.84C347.893 367.714 345.37 370.24 343.562 373.213C341.754 376.186 340.712 379.522 340.52 382.949C340.52 389.223 345.236 391.745 351.002 388.593Z" fill="white"/>
<path d="M545.922 627.888C544.778 630.16 541.145 632.286 537.172 632.887C533.198 633.488 529.148 632.696 525.159 632.169C519.223 631.377 513.212 631.23 507.241 631.729C503.544 632.187 499.822 632.442 496.094 632.491C492.336 632.522 488.665 631.418 485.612 629.339C483.502 627.769 482.095 625.502 481.67 622.991C481.503 624.619 481.777 626.26 482.467 627.758C483.157 629.257 484.24 630.563 485.612 631.553C488.668 633.626 492.337 634.73 496.094 634.705C499.822 634.656 503.544 634.401 507.241 633.942C513.212 633.444 519.223 633.591 525.159 634.382C529.148 634.91 533.477 635.995 537.527 635.364C541.578 634.734 545.133 632.638 546.277 630.365L545.922 627.888Z" fill="#263238"/>
<path d="M502.402 621.159C505.741 621.159 504.52 616.468 507.705 613.33C506.406 613.404 505.108 613.418 503.809 613.418C500.964 617.318 500.16 621.159 502.402 621.159Z" fill="white"/>
<path d="M509.359 620.924C512.729 620.924 511.848 615.324 515.156 612.055C514.402 612.307 513.633 612.518 512.853 612.685C512.204 612.832 511.539 612.935 510.874 613.022C507.921 616.981 507.04 620.924 509.359 620.924Z" fill="white"/>
<path d="M542.459 610.193C542.238 609.16 541.621 608.241 540.727 607.613L522.655 607.188C520.723 609.483 518.111 611.177 515.156 612.055C511.848 615.324 512.729 620.924 509.359 620.924C507.071 620.924 507.921 616.981 510.905 613.023C509.874 613.169 508.844 613.272 507.813 613.33C504.628 616.468 505.85 621.159 502.51 621.159C500.253 621.159 501.057 617.318 503.917 613.418H501.382C500.609 613.418 499.836 613.418 499.078 613.301C492.43 618.286 491.858 623.695 492.724 632.169C493.868 632.366 495.025 632.484 496.187 632.52C499.915 632.471 503.637 632.217 507.334 631.758C513.305 631.259 519.316 631.407 525.252 632.198C529.241 632.726 533.291 633.547 537.264 632.916C541.237 632.286 544.871 630.189 546.015 627.917L542.459 610.193Z" fill="#455A64"/>
<path d="M498.985 613.272C495.99 612.817 492.937 612.817 489.941 613.272C486.277 614.122 482.768 616.512 481.809 619.986C481.557 620.945 481.51 621.942 481.67 622.918C482.095 625.429 483.502 627.696 485.612 629.266C487.669 630.739 490.082 631.702 492.631 632.066C491.766 623.666 492.338 618.256 498.985 613.272Z" fill="white"/>
<path d="M522.129 602.306V610.56C522.129 611.006 522.222 611.447 522.402 611.859C522.583 612.271 522.847 612.645 523.18 612.959C523.514 613.274 523.909 613.523 524.344 613.693C524.779 613.862 525.245 613.948 525.716 613.946H534.868C536.392 613.947 537.857 613.386 538.953 612.382C540.049 611.379 540.691 610.01 540.743 608.566L540.959 602.306H522.129Z" fill="#F28F8F"/>
<path d="M582.361 598.626C581.863 599.637 581.094 600.506 580.131 601.146C579.168 601.787 578.044 602.177 576.873 602.277C574.436 602.443 572.006 601.874 569.931 600.65C566.839 598.758 565.572 595.797 563.438 593.114C561.201 590.524 558.665 588.178 555.878 586.121C552.876 584.017 550.409 581.302 548.658 578.176C548.225 577.243 547.939 576.255 547.808 575.244C547.535 577.144 547.83 579.079 548.658 580.829C550.41 583.951 552.877 586.661 555.878 588.76C558.665 590.822 561.201 593.172 563.438 595.768C565.572 598.436 566.793 601.412 569.931 603.303C572.01 604.516 574.438 605.081 576.873 604.916C578.043 604.818 579.166 604.431 580.129 603.793C581.092 603.155 581.862 602.289 582.361 601.28C582.729 599.772 582.839 598.218 582.686 596.677C582.694 597.339 582.585 597.999 582.361 598.626Z" fill="#263238"/>
<path d="M561.83 580.536C561.493 580.954 561.333 581.477 561.382 582.002C561.44 582.243 561.561 582.466 561.734 582.65C561.907 582.835 562.126 582.975 562.371 583.057C562.726 583.148 563.098 583.149 563.453 583.062C563.808 582.975 564.133 582.801 564.397 582.559C564.927 582.08 565.404 581.549 565.819 580.976C567.022 579.516 568.627 578.399 570.457 577.751C571.354 577.445 572.29 577.252 573.24 577.179L570.983 575.214C569.105 575.309 567.282 575.85 565.683 576.788C564.084 577.725 562.759 579.029 561.83 580.58V580.536Z" fill="white"/>
<path d="M562.31 573.704C560.192 574.643 558.432 576.179 557.27 578.102C556.931 578.52 556.771 579.044 556.821 579.568C556.877 579.812 556.997 580.038 557.17 580.225C557.343 580.412 557.563 580.555 557.811 580.639C558.167 580.729 558.542 580.73 558.9 580.643C559.257 580.556 559.585 580.382 559.851 580.14C560.377 579.66 560.849 579.13 561.258 578.557C562.342 577.234 563.76 576.192 565.382 575.529C567.004 574.865 568.776 574.6 570.534 574.76L568.293 572.825C566.251 572.597 564.183 572.901 562.31 573.704Z" fill="white"/>
<path d="M566.808 571.549C564.754 569.653 562.349 568.132 559.712 567.063C556.481 565.891 552.461 566.067 549.972 568.339C549.058 569.249 548.385 570.353 548.008 571.558C547.632 572.764 547.563 574.037 547.808 575.273C547.939 576.285 548.225 577.272 548.658 578.205C549.248 579.416 550.002 580.55 550.9 581.577C551.766 574.174 558.522 570.714 566.808 571.549Z" fill="white"/>
<path d="M582.531 591.399C582.574 588.89 581.969 586.408 580.769 584.172L576.378 579.774L573.286 577.076C572.336 577.15 571.4 577.342 570.503 577.648C568.673 578.297 567.068 579.413 565.865 580.873C565.451 581.446 564.974 581.977 564.443 582.456C564.18 582.699 563.855 582.872 563.5 582.959C563.145 583.047 562.772 583.045 562.418 582.955C562.172 582.872 561.953 582.732 561.78 582.548C561.607 582.363 561.486 582.14 561.428 581.899C561.38 581.375 561.54 580.852 561.877 580.433C562.805 578.883 564.13 577.579 565.729 576.641C567.329 575.703 569.151 575.162 571.029 575.068L570.426 574.672C568.668 574.513 566.895 574.777 565.274 575.441C563.652 576.105 562.234 577.146 561.15 578.469C560.741 579.042 560.269 579.572 559.743 580.052C559.477 580.295 559.149 580.468 558.792 580.555C558.434 580.642 558.059 580.641 557.702 580.551C557.455 580.467 557.235 580.324 557.062 580.137C556.888 579.95 556.768 579.724 556.713 579.48C556.663 578.956 556.823 578.432 557.161 578.014C558.245 576.212 559.858 574.748 561.805 573.8C563.751 572.853 565.946 572.463 568.122 572.678H568.045L566.7 571.52C558.414 570.684 551.658 574.144 550.792 581.518C552.299 583.185 553.966 584.716 555.77 586.092C558.557 588.149 561.092 590.494 563.33 593.085C565.463 595.768 566.685 598.729 569.823 600.62C571.897 601.844 574.328 602.414 576.765 602.247C577.936 602.147 579.06 601.758 580.023 601.117C580.986 600.476 581.755 599.608 582.253 598.597C582.473 597.979 582.583 597.329 582.578 596.677C582.658 594.918 582.643 593.156 582.531 591.399Z" fill="#455A64"/>
<path d="M566.685 578.337L567.195 587.206C573.101 590.431 579.3 588.672 581.356 586.635L581.743 578.337H566.685Z" fill="#F28F8F"/>
<path d="M578.295 386.833C577.789 385.882 577.485 384.846 577.398 383.784L576.904 376.176L519.702 379.665C518.944 383.462 518.156 388.123 517.429 393.386C537.872 398.449 559.57 396.113 578.295 386.833Z" fill="#F28F8F"/>
<path d="M577.182 356.15L589.349 378.448L578.295 396.04L590.524 414.365L608.983 387.2C610.227 385.358 611.038 383.285 611.364 381.12C611.689 378.955 611.521 376.749 610.869 374.651C607.717 364.053 603.706 353.701 598.872 343.689L577.182 356.15Z" fill="#F28F8F"/>
<path d="M567.504 313.079C581.511 310.616 589.519 315.043 601.361 345.082C596.522 355.344 576.007 359.155 576.007 359.155L567.504 313.079Z" fill="#00B8A9"/>
<path opacity="0.3" d="M567.504 313.079C581.511 310.616 589.519 315.043 601.361 345.082C596.522 355.344 576.007 359.155 576.007 359.155L567.504 313.079Z" fill="black"/>
<path d="M541.284 316.656L525.994 319.515C522.608 325.379 519.161 330.891 515.79 336.755C513.239 341.153 510.627 345.859 510.812 350.887C510.957 353.573 511.89 356.168 513.507 358.377C515.125 360.587 517.361 362.324 519.965 363.392L518.202 383.183C542.211 390.147 571.57 384.033 578.017 378.785C579.903 370.488 581.588 361.662 583.49 353.365C584.894 348.011 585.759 342.542 586.072 337.033C586.391 331.448 584.989 325.896 582.036 321.054L581.944 320.907C579.933 318.046 577.088 315.801 573.756 314.445C570.424 313.089 566.748 312.681 563.175 313.27L541.284 316.656Z" fill="#00B8A9"/>
<path d="M579.192 388.226C578.849 387.788 578.549 387.322 578.295 386.833C559.587 396.098 537.914 398.433 517.491 393.386C513.193 423.791 509.483 475.262 511.755 509.2C513.641 548.782 521.325 604.71 521.325 604.71C531.328 607.554 538.826 605.81 541.655 603.757C544.994 564.542 552.338 537.67 546.664 511.737C550.452 493.602 552.848 470.835 552.848 470.835L555.739 510.886L565.51 581.254C568.258 582.595 571.331 583.224 574.417 583.077C577.504 582.931 580.495 582.014 583.088 580.419C590.199 540.148 592.858 512.865 586.644 492.884C596.182 426.855 596.708 409.952 579.192 388.226Z" fill="#455A64"/>
<path opacity="0.3" d="M557.099 462.933L562.34 442.072C568.524 441.119 578.017 437.322 583.041 429.362C575.794 434.751 566.881 437.734 557.671 437.85L552.894 470.85L553.915 484.938L554.317 479.807C554.778 474.122 555.709 468.48 557.099 462.933Z" fill="black"/>
<path d="M427.545 292.746L442.927 330.495C443.914 332.92 445.547 335.061 447.665 336.711C449.784 338.36 452.317 339.461 455.017 339.907L481.299 344.305C484.358 341.225 486.42 337.379 487.243 333.221C488.065 329.064 487.612 324.769 485.937 320.849C477.973 320.739 470.037 319.914 462.237 318.386C462.237 318.386 445.617 299.211 438.676 289.315L443.623 273.761C443.851 273.063 443.924 272.327 443.839 271.601C443.754 270.875 443.512 270.173 443.128 269.539L440.469 265.141C439.779 264.011 438.681 263.157 437.377 262.736L433.543 261.49C432.677 261.212 431.76 261.103 430.849 261.171C429.937 261.239 429.05 261.483 428.24 261.886L422.396 264.818C422.027 265.001 421.719 265.277 421.506 265.616C421.293 265.955 421.184 266.344 421.191 266.739C421.197 267.123 421.312 267.499 421.524 267.826C421.736 268.154 422.038 268.421 422.396 268.6L424.592 269.671L427.684 274.538C425.614 277.161 424.485 280.344 424.46 283.62C424.435 286.896 425.516 290.094 427.545 292.746Z" fill="#F28F8F"/>
<path d="M523.598 319.207C514.136 319.632 499.928 321.113 485.983 320.849C487.658 324.769 488.111 329.064 487.289 333.221C486.467 337.379 484.404 341.225 481.345 344.305L514.183 349.744C517.648 350.262 521.194 349.539 524.129 347.715C527.063 345.892 529.178 343.098 530.06 339.877C531.08 335.934 532.178 332.621 532.796 328.78C532.992 327.553 532.896 326.3 532.516 325.113C532.136 323.926 531.482 322.834 530.6 321.917C529.719 321 528.633 320.28 527.422 319.812C526.21 319.343 524.904 319.136 523.598 319.207Z" fill="#00B8A9"/>
<path opacity="0.3" d="M523.598 319.207C514.136 319.632 499.928 321.113 485.983 320.849C487.658 324.769 488.111 329.064 487.289 333.221C486.467 337.379 484.404 341.225 481.345 344.305L514.183 349.744C517.648 350.262 521.194 349.539 524.129 347.715C527.063 345.892 529.178 343.098 530.06 339.877C531.08 335.934 532.178 332.621 532.796 328.78C532.992 327.553 532.896 326.3 532.516 325.113C532.136 323.926 531.482 322.834 530.6 321.917C529.719 321 528.633 320.28 527.422 319.812C526.21 319.343 524.904 319.136 523.598 319.207Z" fill="black"/>
<path d="M522.655 277.646C520.377 273.541 519.339 268.919 519.655 264.29C519.838 261.984 520.605 259.753 521.892 257.788C523.178 255.822 524.946 254.181 527.045 253.002C531.328 250.833 537.28 251.536 540.264 255.201C548.148 251.478 558.027 251.419 565.355 256.052C569.019 258.406 571.981 261.617 573.952 265.374C575.924 269.131 576.839 273.308 576.61 277.499C576.285 282.293 574.43 287.013 575.064 291.793C575.389 294.607 576.61 297.451 575.791 300.178C575.405 301.305 574.779 302.344 573.951 303.232C573.124 304.119 572.114 304.836 570.983 305.338C568.772 306.438 563.608 306.145 561.165 306.629C553.714 313.05 544.345 310.645 538.393 304.913C532.441 299.181 522.655 277.646 522.655 277.646Z" fill="#37474F"/>
<path d="M521.109 284.023L516.455 291.69L521.541 293.479L521.109 284.023Z" fill="#804040"/>
<path d="M520.583 280.607C521.325 273.878 523.397 267.53 528.019 264.305C526.781 272.674 528.656 281.191 533.322 288.392C533.779 286.17 534.983 284.148 536.754 282.63C537.615 281.843 538.691 281.299 539.86 281.061C541.029 280.823 542.245 280.899 543.371 281.281C544.909 281.977 546.101 283.212 546.695 284.727C547.321 286.183 547.491 287.779 547.183 289.325C546.876 290.87 546.104 292.298 544.961 293.438C543.818 294.577 542.353 295.38 540.74 295.748C539.128 296.117 537.438 296.036 535.873 295.516C536.514 298.505 538.058 301.253 540.317 303.424C542.577 305.595 545.453 307.095 548.596 307.743C552.744 308.545 557.05 308.157 560.964 306.629L562.881 315.703C555.151 323.576 541.794 318.283 541.794 318.283L540.093 309.326C524.773 310.191 523.35 309.942 521.665 301.996C520.274 294.947 519.91 287.75 520.583 280.607Z" fill="#F28F8F"/>
<path opacity="0.3" d="M554.502 270.829C556.66 264.976 560.991 260.067 566.685 257.019C569.947 259.436 572.545 262.564 574.26 266.137C575.974 269.71 576.754 273.623 576.533 277.543C576.208 282.337 574.353 287.057 574.987 291.837C575.311 294.651 576.533 297.495 575.713 300.222C575.327 301.349 574.701 302.388 573.874 303.276C573.047 304.163 572.037 304.88 570.905 305.382C568.694 306.482 563.531 306.189 561.088 306.673C560.763 306.951 560.439 307.186 560.099 307.435C557.511 302.746 555.478 297.8 554.038 292.687C551.922 285.516 552.084 277.913 554.502 270.829Z" fill="black"/>
<path d="M558.754 265.786C559.954 262.019 562.389 258.714 565.705 256.349C569.021 253.985 573.046 252.684 577.195 252.637C581.344 252.589 585.401 253.797 588.777 256.086C592.152 258.374 594.671 261.623 595.966 265.361C600.604 278.555 588.746 292.716 591.328 306.409C592.256 311.364 595.023 315.879 595.966 320.819C596.534 323.687 596.477 326.634 595.799 329.479C595.121 332.325 593.836 335.008 592.022 337.365C590.209 339.722 587.906 341.701 585.256 343.182C582.605 344.663 579.663 345.614 576.61 345.976C579.934 342.502 579.996 337.18 578.156 332.782C576.316 328.384 572.884 324.88 569.962 321.054C558.058 305.72 552.956 283.906 558.754 265.786Z" fill="#37474F"/>
</svg>
